<svg xmlns="http://www.w3.org/2000/svg" xmlns:xlink="http://www.w3.org/1999/xlink" viewBox="0 0 1482 928.4" xmlns:v="https://vecta.io/nano"><style><![CDATA[.N{shape-rendering:crispEdges}.O{fill:#000}.P{fill:#212121}.Q{fill:#888}.R{fill:#c5c8c6}.S{font-weight:bold}.T{clip-path:url(#J)}.U{clip-path:url(#K)}.V{text-decoration:underline}.W{clip-path:url(#G)}.X{clip-path:url(#H)}.Y{clip-path:url(#L)}.Z{clip-path:url(#M)}.a{clip-path:url(#U)}.b{clip-path:url(#V)}.c{clip-path:url(#W)}.d{clip-path:url(#X)}.e{clip-path:url(#Y)}.f{clip-path:url(#Z)}.g{clip-path:url(#a)}.h{clip-path:url(#E)}.i{clip-path:url(#N)}.j{clip-path:url(#S)}.k{clip-path:url(#D)}.l{clip-path:url(#F)}.m{clip-path:url(#T)}.n{clip-path:url(#B)}.o{clip-path:url(#I)}.p{clip-path:url(#i)}.q{clip-path:url(#R)}.r{clip-path:url(#b)}.s{clip-path:url(#c)}.t{clip-path:url(#d)}.u{clip-path:url(#e)}.v{clip-path:url(#f)}.w{clip-path:url(#g)}.x{clip-path:url(#h)}.y{fill:#fff}.z{clip-path:url(#O)}.AA{clip-path:url(#P)}.AB{clip-path:url(#Q)}.AC{clip-path:url(#C)}.AD{clip-path:url(#j)}.AE{clip-path:url(#terminal-3018234085-line-35)}]]></style><defs><style>@font-face{font-family:"Fira Code";src:local("FiraCode-Regular"), url("https://cdnjs.cloudflare.com/ajax/libs/firacode/6.2.0/woff2/FiraCode-Regular.woff2") format("woff2"), url("https://cdnjs.cloudflare.com/ajax/libs/firacode/6.2.0/woff/FiraCode-Regular.woff") format("woff");font-style:normal;font-weight:400} @font-face{font-family:"Fira Code";src:local("FiraCode-Bold"), url("https://cdnjs.cloudflare.com/ajax/libs/firacode/6.2.0/woff2/FiraCode-Bold.woff2") format("woff2"), url("https://cdnjs.cloudflare.com/ajax/libs/firacode/6.2.0/woff/FiraCode-Bold.woff") format("woff");font-style:bold;font-weight:700}</style><clipPath id="A"><path d="M0 0h1463v877.4H0z"/></clipPath><clipPath id="B"><path d="M0 1.5h1464v24.65H0z"/></clipPath><clipPath id="C"><path d="M0 25.9h1464v24.65H0z"/></clipPath><clipPath id="D"><path d="M0 50.3h1464v24.65H0z"/></clipPath><clipPath id="E"><path d="M0 74.7h1464v24.65H0z"/></clipPath><clipPath id="F"><path d="M0 99.1h1464v24.65H0z"/></clipPath><clipPath id="G"><path d="M0 123.5h1464v24.65H0z"/></clipPath><clipPath id="H"><path d="M0 147.9h1464v24.65H0z"/></clipPath><clipPath id="I"><path d="M0 172.3h1464v24.65H0z"/></clipPath><clipPath id="J"><path d="M0 196.7h1464v24.65H0z"/></clipPath><clipPath id="K"><path d="M0 221.1h1464v24.65H0z"/></clipPath><clipPath id="L"><path d="M0 245.5h1464v24.65H0z"/></clipPath><clipPath id="M"><path d="M0 269.9h1464v24.65H0z"/></clipPath><clipPath id="N"><path d="M0 294.3h1464v24.65H0z"/></clipPath><clipPath id="O"><path d="M0 318.7h1464v24.65H0z"/></clipPath><clipPath id="P"><path d="M0 343.1h1464v24.65H0z"/></clipPath><clipPath id="Q"><path d="M0 367.5h1464v24.65H0z"/></clipPath><clipPath id="R"><path d="M0 391.9h1464v24.65H0z"/></clipPath><clipPath id="S"><path d="M0 416.3h1464v24.65H0z"/></clipPath><clipPath id="T"><path d="M0 440.7h1464v24.65H0z"/></clipPath><clipPath id="U"><path d="M0 465.1h1464v24.65H0z"/></clipPath><clipPath id="V"><path d="M0 489.5h1464v24.65H0z"/></clipPath><clipPath id="W"><path d="M0 513.9h1464v24.65H0z"/></clipPath><clipPath id="X"><path d="M0 538.3h1464v24.65H0z"/></clipPath><clipPath id="Y"><path d="M0 562.7h1464v24.65H0z"/></clipPath><clipPath id="Z"><path d="M0 587.1h1464v24.65H0z"/></clipPath><clipPath id="a"><path d="M0 611.5h1464v24.65H0z"/></clipPath><clipPath id="b"><path d="M0 635.9h1464v24.65H0z"/></clipPath><clipPath id="c"><path d="M0 660.3h1464v24.65H0z"/></clipPath><clipPath id="d"><path d="M0 684.7h1464v24.65H0z"/></clipPath><clipPath id="e"><path d="M0 709.1h1464v24.65H0z"/></clipPath><clipPath id="f"><path d="M0 733.5h1464v24.65H0z"/></clipPath><clipPath id="g"><path d="M0 757.9h1464v24.65H0z"/></clipPath><clipPath id="h"><path d="M0 782.3h1464v24.65H0z"/></clipPath><clipPath id="i"><path d="M0 806.7h1464v24.65H0z"/></clipPath><clipPath id="j"><path d="M0 831.1h1464v24.65H0z"/></clipPath><path id="k" d="M0 1.5h12.2v24.65H0z"/><path id="l" d="M12.2 1.5h12.2v24.65H12.2z"/><path id="m" d="M353.8 1.5H366v24.65h-12.2z"/><path id="n" d="M366 1.5h12.2v24.65H366z"/><path id="o" d="M378.2 1.5h12.2v24.65h-12.2z"/><path id="p" d="M24.4 50.3H61v24.65H24.4z"/><path id="q" d="M390.4 50.3h48.8v24.65h-48.8z"/><path id="r" d="M61 74.7h36.6v24.65H61z"/><path id="s" d="M97.6 74.7H122v24.65H97.6z"/><path id="t" d="M378.2 465.1h195.2v24.65H378.2z"/><path id="u" d="M573.4 465.1h207.4v24.65H573.4z"/><path id="v" d="M780.8 465.1h183v24.65h-183z"/><path id="w" d="M963.8 465.1h219.6v24.65H963.8z"/><path id="x" d="M1183.4 465.1h195.2v24.65h-195.2z"/></defs><rect fill="#292929" stroke="rgba(255,255,255,0.35)" x="1" y="1" width="1480" height="926.4" rx="8"/><text text-anchor="middle" x="740" y="27" font-size="18" font-family="arial" class="R S">Harlequin</text><circle cx="26" cy="22" r="7" fill="#ff5f57"/><circle cx="48" cy="22" r="7" fill="#febc2e"/><circle cx="70" cy="22" r="7" fill="#28c840"/><g transform="translate(9 41)" clip-path="url(#A)"><g class="y N"><use xlink:href="#k"/><use xlink:href="#l"/><path d="M24.4 1.5h170.8v24.65H24.4z"/><path d="M195.2 1.5h158.6v24.65H195.2z"/><use xlink:href="#m"/><use xlink:href="#n"/><use xlink:href="#o"/><path d="M390.4 1.5h170.8v24.65H390.4z"/><path d="M561.2 1.5h890.6v24.65H561.2z"/><path d="M1451.8 1.5h12.2v24.65h-12.2zM0 25.9h12.2v24.65H0z"/><path d="M12.2 25.9h12.2v24.65H12.2z"/><path d="M24.4 25.9h24.4v24.65H24.4z"/><path d="M48.8 25.9h24.4v24.65H48.8z"/><path d="M73.2 25.9h268.4v24.65H73.2z"/><path d="M341.6 25.9h12.2v24.65h-12.2z"/><path d="M353.8 25.9H366v24.65h-12.2z"/><path d="M366 25.9h12.2v24.65H366z"/><path d="M378.2 25.9h12.2v24.65h-12.2z"/><path d="M390.4 25.9h73.2v24.65h-73.2z"/><path d="M463.6 25.9h12.2v24.65h-12.2z"/><path d="M475.8 25.9h963.8v24.65H475.8z"/><path d="M1439.6 25.9h12.2v24.65h-12.2z"/><path d="M1451.8 25.9h12.2v24.65h-12.2zM0 50.3h12.2v24.65H0z"/><path d="M12.2 50.3h12.2v24.65H12.2z"/><use xlink:href="#p"/><path d="M61 50.3h24.4v24.65H61z"/><path d="M85.4 50.3h48.8v24.65H85.4z"/><path d="M134.2 50.3h207.4v24.65H134.2z"/><path d="M341.6 50.3h12.2v24.65h-12.2z"/><path d="M353.8 50.3H366v24.65h-12.2z"/><path d="M366 50.3h12.2v24.65H366z"/><path d="M378.2 50.3h12.2v24.65h-12.2z"/><use xlink:href="#q"/><path d="M439.2 50.3h85.4v24.65h-85.4z"/><path d="M524.6 50.3h12.2v24.65h-12.2z"/><path d="M536.8 50.3h85.4v24.65h-85.4z"/><path d="M622.2 50.3h12.2v24.65h-12.2z"/><path d="M634.4 50.3h12.2v24.65h-12.2z"/><path d="M646.6 50.3h793v24.65h-793z"/><path d="M1439.6 50.3h12.2v24.65h-12.2z"/><path d="M1451.8 50.3h12.2v24.65h-12.2zM0 74.7h12.2v24.65H0z"/><path d="M12.2 74.7h12.2v24.65H12.2z"/><path d="M24.4 74.7H61v24.65H24.4z"/><use xlink:href="#r"/><use xlink:href="#s"/><path d="M122 74.7h109.8v24.65H122z"/><path d="M231.8 74.7H244v24.65h-12.2z"/><path d="M244 74.7h97.6v24.65H244z"/><path d="M341.6 74.7h12.2v24.65h-12.2z"/><path d="M353.8 74.7H366v24.65h-12.2z"/><path d="M366 74.7h12.2v24.65H366z"/><path d="M378.2 74.7h12.2v24.65h-12.2z"/><path d="M390.4 74.7h48.8v24.65h-48.8z"/><path d="M439.2 74.7h85.4v24.65h-85.4z"/><path d="M524.6 74.7h12.2v24.65h-12.2z"/><path d="M536.8 74.7h97.6v24.65h-97.6z"/><path d="M634.4 74.7h12.2v24.65h-12.2z"/><path d="M646.6 74.7h12.2v24.65h-12.2z"/><path d="M658.8 74.7h780.8v24.65H658.8z"/><path d="M1439.6 74.7h12.2v24.65h-12.2z"/><path d="M1451.8 74.7h12.2v24.65h-12.2zM0 99.1h12.2v24.65H0z"/><path d="M12.2 99.1h12.2v24.65H12.2z"/><path d="M24.4 99.1H61v24.65H24.4z"/><path d="M61 99.1h36.6v24.65H61z"/><path d="M97.6 99.1H122v24.65H97.6z"/><path d="M122 99.1h219.6v24.65H122z"/><path d="M341.6 99.1h12.2v24.65h-12.2z"/><path d="M353.8 99.1H366v24.65h-12.2z"/><path d="M366 99.1h12.2v24.65H366z"/><path d="M378.2 99.1h12.2v24.65h-12.2z"/><path d="M390.4 99.1h48.8v24.65h-48.8z"/><path d="M439.2 99.1h85.4v24.65h-85.4z"/><path d="M524.6 99.1h12.2v24.65h-12.2z"/><path d="M536.8 99.1H671v24.65H536.8z"/><path d="M671 99.1h12.2v24.65H671z"/><path d="M683.2 99.1h12.2v24.65h-12.2z"/><path d="M695.4 99.1h744.2v24.65H695.4z"/><path d="M1439.6 99.1h12.2v24.65h-12.2z"/><path d="M1451.8 99.1h12.2v24.65h-12.2zM0 123.5h12.2v24.65H0z"/><path d="M12.2 123.5h12.2v24.65H12.2z"/><path d="M24.4 123.5H61v24.65H24.4z"/><path d="M61 123.5h36.6v24.65H61z"/><path d="M97.6 123.5H122v24.65H97.6z"/><path d="M122 123.5h219.6v24.65H122z"/><path d="M341.6 123.5h12.2v24.65h-12.2z"/><path d="M353.8 123.5H366v24.65h-12.2z"/><path d="M366 123.5h12.2v24.65H366z"/><path d="M378.2 123.5h12.2v24.65h-12.2z"/><path d="M390.4 123.5h48.8v24.65h-48.8z"/><path d="M439.2 123.5h36.6v24.65h-36.6z"/><path d="M475.8 123.5H488v24.65h-12.2z"/><path d="M488 123.5h195.2v24.65H488z"/><path d="M683.2 123.5h12.2v24.65h-12.2z"/><path d="M695.4 123.5H793v24.65h-97.6z"/><path d="M793 123.5h12.2v24.65H793z"/><path d="M805.2 123.5h12.2v24.65h-12.2z"/><path d="M817.4 123.5h24.4v24.65h-24.4z"/><path d="M841.8 123.5H854v24.65h-12.2z"/><path d="M854 123.5h146.4v24.65H854z"/><path d="M1000.4 123.5h12.2v24.65h-12.2z"/><path d="M1012.6 123.5h12.2v24.65h-12.2z"/><path d="M1024.8 123.5h414.8v24.65h-414.8z"/><path d="M1439.6 123.5h12.2v24.65h-12.2z"/><path d="M1451.8 123.5h12.2v24.65h-12.2zM0 147.9h12.2v24.65H0z"/><path d="M12.2 147.9h12.2v24.65H12.2z"/><path d="M24.4 147.9H61v24.65H24.4z"/><path d="M61 147.9h36.6v24.65H61z"/><path d="M97.6 147.9H122v24.65H97.6z"/><path d="M122 147.9h158.6v24.65H122z"/><path d="M280.6 147.9h12.2v24.65h-12.2z"/><path d="M292.8 147.9h48.8v24.65h-48.8z"/><path d="M341.6 147.9h12.2v24.65h-12.2z"/><path d="M353.8 147.9H366v24.65h-12.2z"/><path d="M366 147.9h12.2v24.65H366z"/><path d="M378.2 147.9h12.2v24.65h-12.2z"/><path d="M390.4 147.9h48.8v24.65h-48.8z"/><path d="M439.2 147.9h36.6v24.65h-36.6z"/><path d="M475.8 147.9H488v24.65h-12.2z"/><path d="M488 147.9h195.2v24.65H488z"/><path d="M683.2 147.9h12.2v24.65h-12.2z"/><path d="M695.4 147.9h73.2v24.65h-73.2z"/><path d="M768.6 147.9h12.2v24.65h-12.2z"/><path d="M780.8 147.9H793v24.65h-12.2z"/><path d="M793 147.9h24.4v24.65H793z"/><path d="M817.4 147.9h12.2v24.65h-12.2z"/><path d="M829.6 147.9h122v24.65h-122z"/><path d="M951.6 147.9h12.2v24.65h-12.2z"/><path d="M963.8 147.9h475.8v24.65H963.8z"/><path d="M1439.6 147.9h12.2v24.65h-12.2z"/><path d="M1451.8 147.9h12.2v24.65h-12.2zM0 172.3h12.2v24.65H0z"/><path d="M12.2 172.3h12.2v24.65H12.2z"/><path d="M24.4 172.3H61v24.65H24.4z"/><path d="M61 172.3h36.6v24.65H61z"/><path d="M97.6 172.3H122v24.65H97.6z"/><path d="M122 172.3h207.4v24.65H122z"/><path d="M329.4 172.3h12.2v24.65h-12.2z"/><path d="M341.6 172.3h12.2v24.65h-12.2z"/><path d="M353.8 172.3H366v24.65h-12.2z"/><path d="M366 172.3h12.2v24.65H366z"/><path d="M378.2 172.3h12.2v24.65h-12.2z"/><path d="M390.4 172.3h48.8v24.65h-48.8z"/><path d="M439.2 172.3h12.2v24.65h-12.2z"/><path d="M451.4 172.3h195.2v24.65H451.4z"/><path d="M646.6 172.3h12.2v24.65h-12.2z"/><path d="M658.8 172.3h780.8v24.65H658.8z"/><path d="M1439.6 172.3h12.2v24.65h-12.2z"/><path d="M1451.8 172.3h12.2v24.65h-12.2zM0 196.7h12.2v24.65H0z"/><path d="M12.2 196.7h12.2v24.65H12.2z"/><path d="M24.4 196.7H61v24.65H24.4z"/><path d="M61 196.7h36.6v24.65H61z"/><path d="M97.6 196.7H122v24.65H97.6z"/></g><g fill="#424242" class="N"><path d="M122 196.7h97.6v24.65H122z"/><path d="M219.6 196.7h12.2v24.65h-12.2z"/></g><g class="y N"><path d="M231.8 196.7h109.8v24.65H231.8z"/><path d="M341.6 196.7h12.2v24.65h-12.2z"/><path d="M353.8 196.7H366v24.65h-12.2z"/><path d="M366 196.7h12.2v24.65H366z"/><path d="M378.2 196.7h12.2v24.65h-12.2z"/><path d="M390.4 196.7h48.8v24.65h-48.8z"/><path d="M439.2 196.7h12.2v24.65h-12.2z"/><path d="M451.4 196.7h85.4v24.65h-85.4z"/><path d="M536.8 196.7H549v24.65h-12.2z"/><path d="M549 196.7h24.4v24.65H549z"/><path d="M573.4 196.7h12.2v24.65h-12.2z"/><path d="M585.6 196.7h195.2v24.65H585.6z"/><path d="M780.8 196.7H793v24.65h-12.2z"/><path d="M793 196.7h97.6v24.65H793z"/><path d="M890.6 196.7h12.2v24.65h-12.2z"/><path d="M902.8 196.7H915v24.65h-12.2z"/><path d="M915 196.7h12.2v24.65H915z"/><path d="M927.2 196.7h85.4v24.65h-85.4z"/><path d="M1012.6 196.7h12.2v24.65h-12.2z"/><path d="M1024.8 196.7h97.6v24.65h-97.6z"/><path d="M1122.4 196.7h12.2v24.65h-12.2z"/><path d="M1134.6 196.7h305v24.65h-305z"/><path d="M1439.6 196.7h12.2v24.65h-12.2z"/><path d="M1451.8 196.7h12.2v24.65h-12.2zM0 221.1h12.2v24.65H0z"/><path d="M12.2 221.1h12.2v24.65H12.2z"/><path d="M24.4 221.1H61v24.65H24.4z"/><path d="M61 221.1h36.6v24.65H61z"/><path d="M97.6 221.1h36.6v24.65H97.6z"/><path d="M134.2 221.1h61v24.65h-61z"/><path d="M195.2 221.1h12.2v24.65h-12.2z"/><path d="M207.4 221.1h134.2v24.65H207.4z"/><path d="M341.6 221.1h12.2v24.65h-12.2z"/><path d="M353.8 221.1H366v24.65h-12.2z"/><path d="M366 221.1h12.2v24.65H366z"/><path d="M378.2 221.1h12.2v24.65h-12.2z"/><path d="M390.4 221.1h48.8v24.65h-48.8z"/><path d="M439.2 221.1h12.2v24.65h-12.2z"/><path d="M451.4 221.1h61v24.65h-61z"/><path d="M512.4 221.1h12.2v24.65h-12.2z"/><path d="M524.6 221.1H549v24.65h-24.4z"/><path d="M549 221.1h12.2v24.65H549z"/><path d="M561.2 221.1h195.2v24.65H561.2z"/><path d="M756.4 221.1h12.2v24.65h-12.2z"/><path d="M768.6 221.1h73.2v24.65h-73.2z"/><path d="M841.8 221.1H854v24.65h-12.2z"/><path d="M854 221.1h12.2v24.65H854z"/><path d="M866.2 221.1h12.2v24.65h-12.2z"/><path d="M878.4 221.1h61v24.65h-61z"/><path d="M939.4 221.1h12.2v24.65h-12.2z"/><path d="M951.6 221.1h73.2v24.65h-73.2z"/><path d="M1024.8 221.1h12.2v24.65h-12.2z"/><path d="M1037 221.1h402.6v24.65H1037z"/><path d="M1439.6 221.1h12.2v24.65h-12.2z"/><path d="M1451.8 221.1h12.2v24.65h-12.2zM0 245.5h12.2v24.65H0z"/><path d="M12.2 245.5h12.2v24.65H12.2z"/><path d="M24.4 245.5H61v24.65H24.4z"/><path d="M61 245.5h36.6v24.65H61z"/><path d="M97.6 245.5h36.6v24.65H97.6z"/><path d="M134.2 245.5H183v24.65h-48.8z"/><path d="M183 245.5h12.2v24.65H183z"/><path d="M195.2 245.5h146.4v24.65H195.2z"/><path d="M341.6 245.5h12.2v24.65h-12.2z"/><path d="M353.8 245.5H366v24.65h-12.2z"/><path d="M366 245.5h12.2v24.65H366z"/><path d="M378.2 245.5h12.2v24.65h-12.2z"/></g><g fill="#ffc" class="N"><path d="M390.4 245.5h61v24.65h-61z"/><path d="M451.4 245.5h12.2v24.65h-12.2z"/><path d="M463.6 245.5H488v24.65h-24.4z"/><path d="M488 245.5h12.2v24.65H488z"/><path d="M500.2 245.5h12.2v24.65h-12.2z"/><path d="M512.4 245.5h12.2v24.65h-12.2z"/><path d="M524.6 245.5h12.2v24.65h-12.2z"/><path d="M536.8 245.5H549v24.65h-12.2z"/><path d="M549 245.5h12.2v24.65H549z"/><path d="M561.2 245.5h12.2v24.65h-12.2z"/><path d="M573.4 245.5h12.2v24.65h-12.2z"/></g><g class="y N"><path d="M585.6 245.5h12.2v24.65h-12.2z"/><path d="M597.8 245.5h841.8v24.65H597.8z"/><path d="M1439.6 245.5h12.2v24.65h-12.2z"/><path d="M1451.8 245.5h12.2v24.65h-12.2zM0 269.9h12.2v24.65H0z"/><path d="M12.2 269.9h12.2v24.65H12.2z"/><path d="M24.4 269.9H61v24.65H24.4z"/><path d="M61 269.9h36.6v24.65H61z"/><path d="M97.6 269.9h36.6v24.65H97.6z"/><path d="M134.2 269.9H244v24.65H134.2z"/><path d="M244 269.9h24.4v24.65H244z"/><path d="M268.4 269.9h73.2v24.65h-73.2z"/><path d="M341.6 269.9h12.2v24.65h-12.2z"/><path d="M353.8 269.9H366v24.65h-12.2z"/><path d="M366 269.9h12.2v24.65H366z"/><path d="M378.2 269.9h12.2v24.65h-12.2z"/><path d="M390.4 269.9h73.2v24.65h-73.2z"/><path d="M463.6 269.9h12.2v24.65h-12.2z"/><path d="M475.8 269.9h146.4v24.65H475.8z"/><path d="M622.2 269.9h12.2v24.65h-12.2z"/><path d="M634.4 269.9h12.2v24.65h-12.2z"/><path d="M646.6 269.9h12.2v24.65h-12.2z"/><path d="M658.8 269.9H671v24.65h-12.2z"/><path d="M671 269.9h24.4v24.65H671z"/><path d="M695.4 269.9h12.2v24.65h-12.2z"/><path d="M707.6 269.9h732v24.65h-732z"/><path d="M1439.6 269.9h12.2v24.65h-12.2z"/><path d="M1451.8 269.9h12.2v24.65h-12.2zM0 294.3h12.2v24.65H0z"/><path d="M12.2 294.3h12.2v24.65H12.2z"/><path d="M24.4 294.3H61v24.65H24.4z"/><path d="M61 294.3h36.6v24.65H61z"/><path d="M97.6 294.3h36.6v24.65H97.6z"/><path d="M134.2 294.3h122v24.65h-122z"/><path d="M256.2 294.3h12.2v24.65h-12.2z"/><path d="M268.4 294.3h73.2v24.65h-73.2z"/><path d="M341.6 294.3h12.2v24.65h-12.2z"/><path d="M353.8 294.3H366v24.65h-12.2z"/><path d="M366 294.3h12.2v24.65H366z"/><path d="M378.2 294.3h12.2v24.65h-12.2z"/><path d="M390.4 294.3h61v24.65h-61z"/><path d="M451.4 294.3h12.2v24.65h-12.2z"/><path d="M463.6 294.3H488v24.65h-24.4z"/><path d="M488 294.3h12.2v24.65H488z"/><path d="M500.2 294.3h146.4v24.65H500.2z"/><path d="M646.6 294.3h12.2v24.65h-12.2z"/><path d="M658.8 294.3h36.6v24.65h-36.6z"/><path d="M695.4 294.3h12.2v24.65h-12.2z"/><path d="M707.6 294.3h732v24.65h-732z"/><path d="M1439.6 294.3h12.2v24.65h-12.2z"/><path d="M1451.8 294.3h12.2v24.65h-12.2zM0 318.7h12.2v24.65H0z"/><path d="M12.2 318.7h12.2v24.65H12.2z"/><path d="M24.4 318.7H61v24.65H24.4z"/><path d="M61 318.7h36.6v24.65H61z"/><path d="M97.6 318.7h36.6v24.65H97.6z"/><path d="M134.2 318.7H244v24.65H134.2z"/><path d="M244 318.7h12.2v24.65H244z"/><path d="M256.2 318.7h85.4v24.65h-85.4z"/><path d="M341.6 318.7h12.2v24.65h-12.2z"/><path d="M353.8 318.7H366v24.65h-12.2z"/><path d="M366 318.7h12.2v24.65H366z"/><path d="M378.2 318.7h12.2v24.65h-12.2z"/><path d="M390.4 318.7h1049.2v24.65H390.4z"/><path d="M1439.6 318.7h12.2v24.65h-12.2z"/><path d="M1451.8 318.7h12.2v24.65h-12.2zM0 343.1h12.2v24.65H0z"/><path d="M12.2 343.1h12.2v24.65H12.2z"/><path d="M24.4 343.1H61v24.65H24.4z"/><path d="M61 343.1h36.6v24.65H61z"/><path d="M97.6 343.1h36.6v24.65H97.6z"/><path d="M134.2 343.1h146.4v24.65H134.2z"/><path d="M280.6 343.1h12.2v24.65h-12.2z"/><path d="M292.8 343.1h48.8v24.65h-48.8z"/><path d="M341.6 343.1h12.2v24.65h-12.2z"/><path d="M353.8 343.1H366v24.65h-12.2z"/><path d="M366 343.1h12.2v24.65H366z"/><path d="M378.2 343.1h12.2v24.65h-12.2z"/><path d="M390.4 343.1h1049.2v24.65H390.4z"/><path d="M1439.6 343.1h12.2v24.65h-12.2z"/><path d="M1451.8 343.1h12.2v24.65h-12.2zM0 367.5h12.2v24.65H0z"/><path d="M12.2 367.5h12.2v24.65H12.2z"/><path d="M24.4 367.5H61v24.65H24.4z"/><path d="M61 367.5h36.6v24.65H61z"/><path d="M97.6 367.5h36.6v24.65H97.6z"/><path d="M134.2 367.5h85.4v24.65h-85.4z"/><path d="M219.6 367.5h12.2v24.65h-12.2z"/><path d="M231.8 367.5h109.8v24.65H231.8z"/><path d="M341.6 367.5h12.2v24.65h-12.2z"/><path d="M353.8 367.5H366v24.65h-12.2z"/><path d="M366 367.5h12.2v24.65H366z"/><path d="M378.2 367.5h1073.6v24.65H378.2z"/><path d="M1451.8 367.5h12.2v24.65h-12.2zM0 391.9h12.2v24.65H0z"/><path d="M12.2 391.9h12.2v24.65H12.2z"/><path d="M24.4 391.9H61v24.65H24.4z"/><path d="M61 391.9h36.6v24.65H61z"/><path d="M97.6 391.9h36.6v24.65H97.6z"/><path d="M134.2 391.9h97.6v24.65h-97.6z"/><path d="M231.8 391.9H244v24.65h-12.2z"/><path d="M244 391.9h97.6v24.65H244z"/><path d="M341.6 391.9h12.2v24.65h-12.2z"/><path d="M353.8 391.9H366v24.65h-12.2z"/><path d="M366 391.9h12.2v24.65H366z"/><path d="M378.2 391.9h1073.6v24.65H378.2z"/><path d="M1451.8 391.9h12.2v24.65h-12.2zM0 416.3h12.2v24.65H0z"/><path d="M12.2 416.3h12.2v24.65H12.2z"/><path d="M24.4 416.3H61v24.65H24.4z"/><path d="M61 416.3h36.6v24.65H61z"/><path d="M97.6 416.3h36.6v24.65H97.6z"/><path d="M134.2 416.3H183v24.65h-48.8z"/><path d="M183 416.3h12.2v24.65H183z"/><path d="M195.2 416.3h146.4v24.65H195.2z"/><path d="M341.6 416.3h12.2v24.65h-12.2z"/><path d="M353.8 416.3H366v24.65h-12.2z"/><path d="M366 416.3h634.4v24.65H366z"/><path d="M1000.4 416.3h12.2v24.65h-12.2z"/></g><path d="M1012.6 416.3h12.2v24.65h-12.2z" class="N Q"/><g class="y N"><path d="M1024.8 416.3h12.2v24.65h-12.2z"/><path d="M1037 416.3h85.4v24.65H1037z"/><path d="M1122.4 416.3h36.6v24.65h-36.6z"/><path d="M1159 416.3h36.6v24.65H1159z"/><path d="M1195.6 416.3h48.8v24.65h-48.8z"/></g><path d="M1244.4 416.3h24.4v24.65h-24.4z" class="N"/><path d="M1268.8 416.3H1403v24.65h-134.2z" class="N"/><path d="M1403 416.3h36.6v24.65H1403z" class="N"/><g class="y N"><path d="M1439.6 416.3h24.4v24.65h-24.4zM0 440.7h12.2v24.65H0z"/><path d="M12.2 440.7h12.2v24.65H12.2z"/><path d="M24.4 440.7H61v24.65H24.4z"/><path d="M61 440.7h36.6v24.65H61z"/><path d="M97.6 440.7H122v24.65H97.6z"/><path d="M122 440.7h122v24.65H122z"/><path d="M244 440.7h12.2v24.65H244z"/><path d="M256.2 440.7h85.4v24.65h-85.4z"/><path d="M341.6 440.7h12.2v24.65h-12.2z"/><path d="M353.8 440.7H366v24.65h-12.2z"/><path d="M366 440.7h12.2v24.65H366z"/><path d="M378.2 440.7h12.2v24.65h-12.2z"/><path d="M390.4 440.7h353.8v24.65H390.4z"/><path d="M744.2 440.7h707.6v24.65H744.2z"/><path d="M1451.8 440.7h12.2v24.65h-12.2zM0 465.1h12.2v24.65H0z"/><path d="M12.2 465.1h12.2v24.65H12.2z"/><path d="M24.4 465.1H61v24.65H24.4z"/><path d="M61 465.1h36.6v24.65H61z"/><path d="M97.6 465.1H122v24.65H97.6z"/><path d="M122 465.1h122v24.65H122z"/><path d="M244 465.1h12.2v24.65H244z"/><path d="M256.2 465.1h85.4v24.65h-85.4z"/><path d="M341.6 465.1h12.2v24.65h-12.2z"/><path d="M353.8 465.1H366v24.65h-12.2z"/><path d="M366 465.1h12.2v24.65H366z"/><use xlink:href="#t"/><use xlink:href="#u"/><use xlink:href="#v"/><use xlink:href="#w"/><use xlink:href="#x"/><path d="M1378.6 465.1h48.8v24.65h-48.8z"/></g><path d="M1427.4 465.1h24.4v24.65h-24.4z" class="N Q"/><g class="y N"><path d="M1451.8 465.1h12.2v24.65h-12.2zM0 489.5h12.2v24.65H0z"/><path d="M12.2 489.5h12.2v24.65H12.2z"/><path d="M24.4 489.5H61v24.65H24.4z"/><path d="M61 489.5h36.6v24.65H61z"/><path d="M97.6 489.5H122v24.65H97.6z"/><path d="M122 489.5h134.2v24.65H122z"/><path d="M256.2 489.5h12.2v24.65h-12.2z"/><path d="M268.4 489.5h73.2v24.65h-73.2z"/><path d="M341.6 489.5h12.2v24.65h-12.2z"/><path d="M353.8 489.5H366v24.65h-12.2z"/><path d="M366 489.5h12.2v24.65H366z"/></g><path fill="#666" d="M378.2 489.5h195.2v24.65H378.2z" class="N"/><g class="y N"><path d="M573.4 489.5h207.4v24.65H573.4z"/><path d="M780.8 489.5h183v24.65h-183z"/><path d="M963.8 489.5h219.6v24.65H963.8z"/><path d="M1183.4 489.5h195.2v24.65h-195.2z"/><path d="M1378.6 489.5h48.8v24.65h-48.8z"/><path d="M1427.4 489.5h24.4v24.65h-24.4z"/><path d="M1451.8 489.5h12.2v24.65h-12.2zM0 513.9h12.2v24.65H0z"/><path d="M12.2 513.9h12.2v24.65H12.2z"/><path d="M24.4 513.9H61v24.65H24.4z"/><path d="M61 513.9h36.6v24.65H61z"/><path d="M97.6 513.9H122v24.65H97.6z"/><path d="M122 513.9h73.2v24.65H122z"/><path d="M195.2 513.9h12.2v24.65h-12.2z"/><path d="M207.4 513.9h134.2v24.65H207.4z"/><path d="M341.6 513.9h12.2v24.65h-12.2z"/><path d="M353.8 513.9H366v24.65h-12.2z"/><path d="M366 513.9h12.2v24.65H366z"/><path d="M378.2 513.9h195.2v24.65H378.2z"/><path d="M573.4 513.9h207.4v24.65H573.4z"/><path d="M780.8 513.9h183v24.65h-183z"/><path d="M963.8 513.9h219.6v24.65H963.8z"/><path d="M1183.4 513.9h195.2v24.65h-195.2z"/><path d="M1378.6 513.9h48.8v24.65h-48.8z"/><path d="M1427.4 513.9h24.4v24.65h-24.4z"/><path d="M1451.8 513.9h12.2v24.65h-12.2zM0 538.3h12.2v24.65H0z"/><path d="M12.2 538.3h12.2v24.65H12.2z"/><path d="M24.4 538.3H61v24.65H24.4z"/><path d="M61 538.3h36.6v24.65H61z"/><path d="M97.6 538.3H122v24.65H97.6z"/><path d="M122 538.3h97.6v24.65H122z"/><path d="M219.6 538.3h12.2v24.65h-12.2z"/><path d="M231.8 538.3h109.8v24.65H231.8z"/><path d="M341.6 538.3h12.2v24.65h-12.2z"/><path d="M353.8 538.3H366v24.65h-12.2z"/><path d="M366 538.3h12.2v24.65H366z"/><path d="M378.2 538.3h195.2v24.65H378.2z"/><path d="M573.4 538.3h207.4v24.65H573.4z"/><path d="M780.8 538.3h183v24.65h-183z"/><path d="M963.8 538.3h219.6v24.65H963.8z"/><path d="M1183.4 538.3h195.2v24.65h-195.2z"/><path d="M1378.6 538.3h48.8v24.65h-48.8z"/><path d="M1427.4 538.3h24.4v24.65h-24.4z"/><path d="M1451.8 538.3h12.2v24.65h-12.2zM0 562.7h12.2v24.65H0z"/><path d="M12.2 562.7h12.2v24.65H12.2z"/><path d="M24.4 562.7H61v24.65H24.4z"/><path d="M61 562.7h36.6v24.65H61z"/><path d="M97.6 562.7H122v24.65H97.6z"/><path d="M122 562.7h97.6v24.65H122z"/><path d="M219.6 562.7h12.2v24.65h-12.2z"/><path d="M231.8 562.7h109.8v24.65H231.8z"/><path d="M341.6 562.7h12.2v24.65h-12.2z"/><path d="M353.8 562.7H366v24.65h-12.2z"/><path d="M366 562.7h12.2v24.65H366z"/><path d="M378.2 562.7h195.2v24.65H378.2z"/><path d="M573.4 562.7h207.4v24.65H573.4z"/><path d="M780.8 562.7h183v24.65h-183z"/><path d="M963.8 562.7h219.6v24.65H963.8z"/><path d="M1183.4 562.7h195.2v24.65h-195.2z"/><path d="M1378.6 562.7h48.8v24.65h-48.8z"/><path d="M1427.4 562.7h24.4v24.65h-24.4z"/><path d="M1451.8 562.7h12.2v24.65h-12.2zM0 587.1h12.2v24.65H0z"/><path d="M12.2 587.1h12.2v24.65H12.2z"/><path d="M24.4 587.1H61v24.65H24.4z"/><path d="M61 587.1h36.6v24.65H61z"/><path d="M97.6 587.1H122v24.65H97.6z"/><path d="M122 587.1h183v24.65H122z"/><path d="M305 587.1h12.2v24.65H305z"/><path d="M317.2 587.1h24.4v24.65h-24.4z"/><path d="M341.6 587.1h12.2v24.65h-12.2z"/><path d="M353.8 587.1H366v24.65h-12.2z"/><path d="M366 587.1h12.2v24.65H366z"/><path d="M378.2 587.1h195.2v24.65H378.2z"/><path d="M573.4 587.1h207.4v24.65H573.4z"/><path d="M780.8 587.1h183v24.65h-183z"/><path d="M963.8 587.1h219.6v24.65H963.8z"/><path d="M1183.4 587.1h195.2v24.65h-195.2z"/><path d="M1378.6 587.1h48.8v24.65h-48.8z"/><path d="M1427.4 587.1h24.4v24.65h-24.4z"/><path d="M1451.8 587.1h12.2v24.65h-12.2zM0 611.5h12.2v24.65H0z"/><path d="M12.2 611.5h12.2v24.65H12.2z"/><path d="M24.4 611.5H61v24.65H24.4z"/><path d="M61 611.5h36.6v24.65H61z"/><path d="M97.6 611.5H122v24.65H97.6z"/><path d="M122 611.5h85.4v24.65H122z"/><path d="M207.4 611.5h12.2v24.65h-12.2z"/><path d="M219.6 611.5h122v24.65h-122z"/><path d="M341.6 611.5h12.2v24.65h-12.2z"/><path d="M353.8 611.5H366v24.65h-12.2z"/><path d="M366 611.5h12.2v24.65H366z"/><path d="M378.2 611.5h195.2v24.65H378.2z"/><path d="M573.4 611.5h207.4v24.65H573.4z"/><path d="M780.8 611.5h183v24.65h-183z"/><path d="M963.8 611.5h219.6v24.65H963.8z"/><path d="M1183.4 611.5h195.2v24.65h-195.2z"/><path d="M1378.6 611.5h48.8v24.65h-48.8z"/><path d="M1427.4 611.5h24.4v24.65h-24.4z"/><path d="M1451.8 611.5h12.2v24.65h-12.2zM0 635.9h12.2v24.65H0z"/><path d="M12.2 635.9h12.2v24.65H12.2z"/><path d="M24.4 635.9h317.2v24.65H24.4z"/><path d="M341.6 635.9h12.2v24.65h-12.2z"/><path d="M353.8 635.9H366v24.65h-12.2z"/><path d="M366 635.9h12.2v24.65H366z"/><path d="M378.2 635.9h195.2v24.65H378.2z"/><path d="M573.4 635.9h207.4v24.65H573.4z"/><path d="M780.8 635.9h183v24.65h-183z"/><path d="M963.8 635.9h219.6v24.65H963.8z"/><path d="M1183.4 635.9h195.2v24.65h-195.2z"/><path d="M1378.6 635.9h48.8v24.65h-48.8z"/><path d="M1427.4 635.9h24.4v24.65h-24.4z"/><path d="M1451.8 635.9h12.2v24.65h-12.2zM0 660.3h12.2v24.65H0z"/><path d="M12.2 660.3h12.2v24.65H12.2z"/><path d="M24.4 660.3h317.2v24.65H24.4z"/><path d="M341.6 660.3h12.2v24.65h-12.2z"/><path d="M353.8 660.3H366v24.65h-12.2z"/><path d="M366 660.3h12.2v24.65H366z"/><path d="M378.2 660.3h195.2v24.65H378.2z"/><path d="M573.4 660.3h207.4v24.65H573.4z"/><path d="M780.8 660.3h183v24.65h-183z"/><path d="M963.8 660.3h219.6v24.65H963.8z"/><path d="M1183.4 660.3h195.2v24.65h-195.2z"/><path d="M1378.6 660.3h48.8v24.65h-48.8z"/><path d="M1427.4 660.3h24.4v24.65h-24.4z"/><path d="M1451.8 660.3h12.2v24.65h-12.2zM0 684.7h12.2v24.65H0z"/><path d="M12.2 684.7h12.2v24.65H12.2z"/><path d="M24.4 684.7h317.2v24.65H24.4z"/><path d="M341.6 684.7h12.2v24.65h-12.2z"/><path d="M353.8 684.7H366v24.65h-12.2z"/><path d="M366 684.7h12.2v24.65H366z"/><path d="M378.2 684.7h195.2v24.65H378.2z"/><path d="M573.4 684.7h207.4v24.65H573.4z"/><path d="M780.8 684.7h183v24.65h-183z"/><path d="M963.8 684.7h219.6v24.65H963.8z"/><path d="M1183.4 684.7h195.2v24.65h-195.2z"/><path d="M1378.6 684.7h48.8v24.65h-48.8z"/><path d="M1427.4 684.7h24.4v24.65h-24.4z"/><path d="M1451.8 684.7h12.2v24.65h-12.2zM0 709.1h12.2v24.65H0z"/><path d="M12.2 709.1h12.2v24.65H12.2z"/><path d="M24.4 709.1h317.2v24.65H24.4z"/><path d="M341.6 709.1h12.2v24.65h-12.2z"/><path d="M353.8 709.1H366v24.65h-12.2z"/><path d="M366 709.1h12.2v24.65H366z"/><path d="M378.2 709.1h195.2v24.65H378.2z"/><path d="M573.4 709.1h207.4v24.65H573.4z"/><path d="M780.8 709.1h183v24.65h-183z"/><path d="M963.8 709.1h219.6v24.65H963.8z"/><path d="M1183.4 709.1h195.2v24.65h-195.2z"/><path d="M1378.6 709.1h48.8v24.65h-48.8z"/><path d="M1427.4 709.1h24.4v24.65h-24.4z"/><path d="M1451.8 709.1h12.2v24.65h-12.2zM0 733.5h12.2v24.65H0z"/><path d="M12.2 733.5h12.2v24.65H12.2z"/><path d="M24.4 733.5h317.2v24.65H24.4z"/><path d="M341.6 733.5h12.2v24.65h-12.2z"/><path d="M353.8 733.5H366v24.65h-12.2z"/><path d="M366 733.5h12.2v24.65H366z"/><path d="M378.2 733.5h195.2v24.65H378.2z"/><path d="M573.4 733.5h207.4v24.65H573.4z"/><path d="M780.8 733.5h183v24.65h-183z"/><path d="M963.8 733.5h219.6v24.65H963.8z"/><path d="M1183.4 733.5h195.2v24.65h-195.2z"/><path d="M1378.6 733.5h48.8v24.65h-48.8z"/><path d="M1427.4 733.5h24.4v24.65h-24.4z"/><path d="M1451.8 733.5h12.2v24.65h-12.2zM0 757.9h12.2v24.65H0z"/><path d="M12.2 757.9h12.2v24.65H12.2z"/><path d="M24.4 757.9h317.2v24.65H24.4z"/><path d="M341.6 757.9h12.2v24.65h-12.2z"/><path d="M353.8 757.9H366v24.65h-12.2z"/><path d="M366 757.9h12.2v24.65H366z"/><path d="M378.2 757.9h195.2v24.65H378.2z"/><path d="M573.4 757.9h207.4v24.65H573.4z"/><path d="M780.8 757.9h183v24.65h-183z"/><path d="M963.8 757.9h219.6v24.65H963.8z"/><path d="M1183.4 757.9h195.2v24.65h-195.2z"/><path d="M1378.6 757.9h48.8v24.65h-48.8z"/><path d="M1427.4 757.9h24.4v24.65h-24.4z"/><path d="M1451.8 757.9h12.2v24.65h-12.2zM0 782.3h12.2v24.65H0z"/><path d="M12.2 782.3h12.2v24.65H12.2z"/><path d="M24.4 782.3h317.2v24.65H24.4z"/><path d="M341.6 782.3h12.2v24.65h-12.2z"/><path d="M353.8 782.3H366v24.65h-12.2z"/><path d="M366 782.3h12.2v24.65H366z"/><path d="M378.2 782.3h195.2v24.65H378.2z"/><path d="M573.4 782.3h207.4v24.65H573.4z"/><path d="M780.8 782.3h183v24.65h-183z"/><path d="M963.8 782.3h219.6v24.65H963.8z"/><path d="M1183.4 782.3h195.2v24.65h-195.2z"/><path d="M1378.6 782.3h48.8v24.65h-48.8z"/><path d="M1427.4 782.3h24.4v24.65h-24.4z"/><path d="M1451.8 782.3h12.2v24.65h-12.2zM0 806.7h12.2v24.65H0z"/><path d="M12.2 806.7h12.2v24.65H12.2z"/></g><g class="Q N"><path d="M24.4 806.7h12.2v24.65H24.4z"/><path d="M36.6 806.7h12.2v24.65H36.6z"/><path d="M48.8 806.7H61v24.65H48.8z"/><path d="M61 806.7h12.2v24.65H61z"/><path d="M73.2 806.7h12.2v24.65H73.2z"/><path d="M85.4 806.7h12.2v24.65H85.4z"/><path d="M97.6 806.7h12.2v24.65H97.6z"/><path d="M109.8 806.7H122v24.65h-12.2z"/><path d="M122 806.7h12.2v24.65H122z"/><path d="M134.2 806.7h12.2v24.65h-12.2z"/><path d="M146.4 806.7h12.2v24.65h-12.2z"/><path d="M158.6 806.7h12.2v24.65h-12.2z"/><path d="M170.8 806.7H183v24.65h-12.2z"/><path d="M183 806.7h12.2v24.65H183z"/><path d="M195.2 806.7h12.2v24.65h-12.2z"/><path d="M207.4 806.7h12.2v24.65h-12.2z"/><path d="M219.6 806.7h12.2v24.65h-12.2z"/><path d="M231.8 806.7H244v24.65h-12.2z"/><path d="M244 806.7h12.2v24.65H244z"/><path d="M256.2 806.7h12.2v24.65h-12.2z"/></g><g class="y N"><path d="M268.4 806.7h12.2v24.65h-12.2z"/><path d="M280.6 806.7h12.2v24.65h-12.2z"/><path d="M292.8 806.7H305v24.65h-12.2z"/><path d="M305 806.7h12.2v24.65H305z"/><path d="M317.2 806.7h12.2v24.65h-12.2z"/><path d="M329.4 806.7h12.2v24.65h-12.2z"/><path d="M341.6 806.7h12.2v24.65h-12.2z"/><path d="M353.8 806.7H366v24.65h-12.2z"/><path d="M366 806.7h12.2v24.65H366z"/><path d="M378.2 806.7h195.2v24.65H378.2z"/><path d="M573.4 806.7h207.4v24.65H573.4z"/><path d="M780.8 806.7h183v24.65h-183z"/><path d="M963.8 806.7h219.6v24.65H963.8z"/><path d="M1183.4 806.7h195.2v24.65h-195.2z"/><path d="M1378.6 806.7h48.8v24.65h-48.8z"/><path d="M1427.4 806.7h24.4v24.65h-24.4z"/><path d="M1451.8 806.7h12.2v24.65h-12.2zM0 831.1h12.2v24.65H0z"/><path d="M12.2 831.1h341.6v24.65H12.2z"/><path d="M353.8 831.1H366v24.65h-12.2z"/><path d="M366 831.1h12.2v24.65H366z"/><path d="M378.2 831.1h1073.6v24.65H378.2z"/><path d="M1451.8 831.1h12.2v24.65h-12.2zM0 855.5h97.6v24.65H0z"/><path d="M97.6 855.5h73.2v24.65H97.6z"/><path d="M170.8 855.5h48.8v24.65h-48.8z"/><path d="M219.6 855.5h73.2v24.65h-73.2z"/><path d="M292.8 855.5H1464v24.65H292.8z"/></g><g font-family="Fira Code,monospace" font-size="20"><text y="20" textLength="12.2" x="0" class="Q n">╭</text><text x="12.2" y="20" textLength="12.2" class="Q n">─</text><text x="24.4" y="20" textLength="170.8" class="Q n"> Data Catalog </text><text x="195.2" y="20" textLength="158.6" class="Q n">─────────────</text><text x="353.8" y="20" textLength="12.2" class="Q n">╮</text><text x="366" y="20" textLength="12.2" class="Q n">╭</text><text x="378.2" y="20" textLength="12.2" class="Q n">─</text><text x="390.4" y="20" textLength="170.8" class="Q n"> Query Editor </text><text x="561.2" y="20" textLength="890.6" class="Q n">─────────────────────────────────────────────────────────────────────────</text><text x="1451.8" y="20" textLength="12.2" class="Q n">╮</text><text y="44.4" textLength="12.2" x="0" class="Q AC">│</text><text x="24.4" y="44.4" textLength="24.4" class="P AC">▼ </text><text x="48.8" y="44.4" textLength="24.4" class="P AC">f1</text><text x="353.8" y="44.4" textLength="12.2" class="Q AC">│</text><text x="366" y="44.4" textLength="12.2" class="Q AC">│</text><text x="390.4" y="44.4" textLength="73.2" class="O S V AC">select</text><text x="1451.8" y="44.4" textLength="12.2" class="Q AC">│</text><text y="68.8" textLength="12.2" x="0" class="Q k">│</text><text x="24.4" y="68.8" textLength="36.6" class="O k">└─ </text><text x="61" y="68.8" textLength="24.4" class="P k">▼ </text><text x="85.4" y="68.8" textLength="48.8" class="P k">main</text><text x="353.8" y="68.8" textLength="12.2" class="Q k">│</text><text x="366" y="68.8" textLength="12.2" class="Q k">│</text><text x="439.2" y="68.8" textLength="85.4" class="O k">drivers</text><text x="524.6" y="68.8" textLength="12.2" class="O k">.</text><text x="536.8" y="68.8" textLength="85.4" class="O k">surname</text><text x="622.2" y="68.8" textLength="12.2" class="O k">,</text><text x="1451.8" y="68.8" textLength="12.2" class="Q k">│</text><text y="93.2" textLength="12.2" x="0" class="Q h">│</text><text x="61" y="93.2" textLength="36.6" class="O h">├─ </text><text x="97.6" y="93.2" textLength="24.4" class="P h">▶ </text><text x="122" y="93.2" textLength="109.8" class="P h">circuits </text><text x="231.8" y="93.2" textLength="12.2" class="P h">t</text><text x="353.8" y="93.2" textLength="12.2" class="Q h">│</text><text x="366" y="93.2" textLength="12.2" class="Q h">│</text><text x="439.2" y="93.2" textLength="85.4" class="O h">drivers</text><text x="524.6" y="93.2" textLength="12.2" class="O h">.</text><text x="536.8" y="93.2" textLength="97.6" class="O h">forename</text><text x="634.4" y="93.2" textLength="12.2" class="O h">,</text><text x="1451.8" y="93.2" textLength="12.2" class="Q h">│</text><text y="117.6" textLength="12.2" x="0" class="Q l">│</text><text x="61" y="117.6" textLength="36.6" class="O l">├─ </text><text x="97.6" y="117.6" textLength="24.4" class="P l">▶ </text><text x="122" y="117.6" textLength="219.6" class="P l">constructor_result</text><text x="353.8" y="117.6" textLength="12.2" class="Q l">│</text><text x="366" y="117.6" textLength="12.2" class="Q l">│</text><text x="439.2" y="117.6" textLength="85.4" class="O l">drivers</text><text x="524.6" y="117.6" textLength="12.2" class="O l">.</text><text x="536.8" y="117.6" textLength="134.2" class="O l">nationality</text><text x="671" y="117.6" textLength="12.2" class="O l">,</text><text x="1451.8" y="117.6" textLength="12.2" class="Q l">│</text><text y="142" textLength="12.2" x="0" class="Q W">│</text><text x="61" y="142" textLength="36.6" class="O W">├─ </text><text x="97.6" y="142" textLength="24.4" class="P W">▶ </text><text x="122" y="142" textLength="219.6" class="P W">constructor_standi</text><text x="353.8" y="142" textLength="12.2" class="Q W">│</text><text x="366" y="142" textLength="12.2" class="Q W">│</text><text x="439.2" y="142" textLength="36.6" class="O S V W">avg</text><text x="475.8" y="142" textLength="12.2" class="O W">(</text><text x="488" y="142" textLength="195.2" class="O W">driver_standings</text><text x="683.2" y="142" textLength="12.2" class="O W">.</text><text x="695.4" y="142" textLength="97.6" class="O S V W">position</text><text x="793" y="142" textLength="12.2" class="O W">)</text><text x="817.4" y="142" textLength="24.4" class="O S V W">as</text><text x="854" y="142" textLength="146.4" class="O W">avg_standing</text><text x="1000.4" y="142" textLength="12.2" class="O W">,</text><text x="1451.8" y="142" textLength="12.2" class="Q W">│</text><text y="166.4" textLength="12.2" x="0" class="Q X">│</text><text x="61" y="166.4" textLength="36.6" class="O X">├─ </text><text x="97.6" y="166.4" textLength="24.4" class="P X">▶ </text><text x="122" y="166.4" textLength="158.6" class="P X">constructors </text><text x="280.6" y="166.4" textLength="12.2" class="P X">t</text><text x="353.8" y="166.4" textLength="12.2" class="Q X">│</text><text x="366" y="166.4" textLength="12.2" class="Q X">│</text><text x="439.2" y="166.4" textLength="36.6" class="O S V X">avg</text><text x="475.8" y="166.4" textLength="12.2" class="O X">(</text><text x="488" y="166.4" textLength="195.2" class="O X">driver_standings</text><text x="683.2" y="166.4" textLength="12.2" class="O X">.</text><text x="695.4" y="166.4" textLength="73.2" class="O X">points</text><text x="768.6" y="166.4" textLength="12.2" class="O X">)</text><text x="793" y="166.4" textLength="24.4" class="O S V X">as</text><text x="829.6" y="166.4" textLength="122" class="O X">avg_points</text><text x="1451.8" y="166.4" textLength="12.2" class="Q X">│</text><text y="190.8" textLength="12.2" x="0" class="Q o">│</text><text x="61" y="190.8" textLength="36.6" class="O o">├─ </text><text x="97.6" y="190.8" textLength="24.4" class="P o">▶ </text><text x="122" y="190.8" textLength="207.4" class="P o">driver_standings </text><text x="329.4" y="190.8" textLength="12.2" class="P o">t</text><text x="353.8" y="190.8" textLength="12.2" class="Q o">│</text><text x="366" y="190.8" textLength="12.2" class="Q o">│</text><text x="390.4" y="190.8" textLength="48.8" class="O S V o">from</text><text x="451.4" y="190.8" textLength="195.2" class="O o">driver_standings</text><text x="1451.8" y="190.8" textLength="12.2" class="Q o">│</text><text y="215.2" textLength="12.2" x="0" class="Q T">│</text><text x="61" y="215.2" textLength="36.6" class="O T">├─ </text><text x="97.6" y="215.2" textLength="24.4" class="P T">▼ </text><text x="122" y="215.2" textLength="97.6" fill="#e6e6e6" class="S T">drivers </text><text x="219.6" y="215.2" textLength="12.2" fill="#e6e6e6" class="S T">t</text><text x="353.8" y="215.2" textLength="12.2" class="Q T">│</text><text x="366" y="215.2" textLength="12.2" class="Q T">│</text><text x="390.4" y="215.2" textLength="48.8" class="O S T V">join</text><text x="451.4" y="215.2" textLength="85.4" class="O T">drivers</text><text x="549" y="215.2" textLength="24.4" class="O S T V">on</text><text x="585.6" y="215.2" textLength="195.2" class="O T">driver_standings</text><text x="780.8" y="215.2" textLength="12.2" class="O T">.</text><text x="793" y="215.2" textLength="97.6" class="O T">driverid</text><text x="902.8" y="215.2" textLength="12.2" class="O T">=</text><text x="927.2" y="215.2" textLength="85.4" class="O T">drivers</text><text x="1012.6" y="215.2" textLength="12.2" class="O T">.</text><text x="1024.8" y="215.2" textLength="97.6" class="O T">driverid</text><text x="1451.8" y="215.2" textLength="12.2" class="Q T">│</text><text y="239.6" textLength="12.2" x="0" class="Q U">│</text><text x="61" y="239.6" textLength="36.6" class="O U">│  </text><text x="97.6" y="239.6" textLength="36.6" class="O U">├─ </text><text x="134.2" y="239.6" textLength="61" class="P U">code </text><text x="195.2" y="239.6" textLength="12.2" class="P U">s</text><text x="353.8" y="239.6" textLength="12.2" class="Q U">│</text><text x="366" y="239.6" textLength="12.2" class="Q U">│</text><text x="390.4" y="239.6" textLength="48.8" class="O S U V">join</text><text x="451.4" y="239.6" textLength="61" class="O U">races</text><text x="524.6" y="239.6" textLength="24.4" class="O S U V">on</text><text x="561.2" y="239.6" textLength="195.2" class="O U">driver_standings</text><text x="756.4" y="239.6" textLength="12.2" class="O U">.</text><text x="768.6" y="239.6" textLength="73.2" class="O U">raceid</text><text x="854" y="239.6" textLength="12.2" class="O U">=</text><text x="878.4" y="239.6" textLength="61" class="O U">races</text><text x="939.4" y="239.6" textLength="12.2" class="O U">.</text><text x="951.6" y="239.6" textLength="73.2" class="O U">raceid</text><text x="1451.8" y="239.6" textLength="12.2" class="Q U">│</text><text y="264" textLength="12.2" x="0" class="Q Y">│</text><text x="61" y="264" textLength="36.6" class="O Y">│  </text><text x="97.6" y="264" textLength="36.6" class="O Y">├─ </text><text x="134.2" y="264" textLength="48.8" class="P Y">dob </text><text x="183" y="264" textLength="12.2" class="P Y">d</text><text x="353.8" y="264" textLength="12.2" class="Q Y">│</text><text x="366" y="264" textLength="12.2" class="Q Y">│</text><text x="390.4" y="264" textLength="61" class="O S V Y">group</text><text x="463.6" y="264" textLength="24.4" class="O S V Y">by</text><text x="500.2" y="264" textLength="12.2" class="O Y">1</text><text x="512.4" y="264" textLength="12.2" class="O Y">,</text><text x="536.8" y="264" textLength="12.2" class="O Y">2</text><text x="549" y="264" textLength="12.2" class="O Y">,</text><text x="573.4" y="264" textLength="12.2" class="O Y">3</text><text x="1451.8" y="264" textLength="12.2" class="Q Y">│</text><text y="288.4" textLength="12.2" x="0" class="Q Z">│</text><text x="61" y="288.4" textLength="36.6" class="O Z">│  </text><text x="97.6" y="288.4" textLength="36.6" class="O Z">├─ </text><text x="134.2" y="288.4" textLength="109.8" class="P Z">driverId </text><text x="244" y="288.4" textLength="24.4" class="P Z">##</text><text x="353.8" y="288.4" textLength="12.2" class="Q Z">│</text><text x="366" y="288.4" textLength="12.2" class="Q Z">│</text><text x="390.4" y="288.4" textLength="73.2" class="O S V Z">having</text><text x="475.8" y="288.4" textLength="146.4" class="O Z">avg_standing</text><text x="634.4" y="288.4" textLength="12.2" class="O Z">&lt;</text><text x="646.6" y="288.4" textLength="12.2" class="O Z">=</text><text x="671" y="288.4" textLength="24.4" class="O Z">20</text><text x="1451.8" y="288.4" textLength="12.2" class="Q Z">│</text><text y="312.8" textLength="12.2" x="0" class="Q i">│</text><text x="61" y="312.8" textLength="36.6" class="O i">│  </text><text x="97.6" y="312.8" textLength="36.6" class="O i">├─ </text><text x="134.2" y="312.8" textLength="122" class="P i">driverRef </text><text x="256.2" y="312.8" textLength="12.2" class="P i">s</text><text x="353.8" y="312.8" textLength="12.2" class="Q i">│</text><text x="366" y="312.8" textLength="12.2" class="Q i">│</text><text x="390.4" y="312.8" textLength="61" class="O S V i">order</text><text x="463.6" y="312.8" textLength="24.4" class="O S V i">by</text><text x="500.2" y="312.8" textLength="146.4" class="O i">avg_standing</text><text x="658.8" y="312.8" textLength="36.6" class="O S V i">asc</text><text x="1451.8" y="312.8" textLength="12.2" class="Q i">│</text><text y="337.2" textLength="12.2" x="0" class="Q z">│</text><text x="61" y="337.2" textLength="36.6" class="O z">│  </text><text x="97.6" y="337.2" textLength="36.6" class="O z">├─ </text><text x="134.2" y="337.2" textLength="109.8" class="P z">forename </text><text x="244" y="337.2" textLength="12.2" class="P z">s</text><text x="353.8" y="337.2" textLength="12.2" class="Q z">│</text><text x="366" y="337.2" textLength="12.2" class="Q z">│</text><text x="1451.8" y="337.2" textLength="12.2" class="Q z">│</text><text y="361.6" textLength="12.2" x="0" class="Q AA">│</text><text x="61" y="361.6" textLength="36.6" class="O AA">│  </text><text x="97.6" y="361.6" textLength="36.6" class="O AA">├─ </text><text x="134.2" y="361.6" textLength="146.4" class="P AA">nationality </text><text x="280.6" y="361.6" textLength="12.2" class="P AA">s</text><text x="353.8" y="361.6" textLength="12.2" class="Q AA">│</text><text x="366" y="361.6" textLength="12.2" class="Q AA">│</text><text x="1451.8" y="361.6" textLength="12.2" class="Q AA">│</text><text y="386" textLength="12.2" x="0" class="Q AB">│</text><text x="61" y="386" textLength="36.6" class="O AB">│  </text><text x="97.6" y="386" textLength="36.6" class="O AB">├─ </text><text x="134.2" y="386" textLength="85.4" class="P AB">number </text><text x="219.6" y="386" textLength="12.2" class="P AB">s</text><text x="353.8" y="386" textLength="12.2" class="Q AB">│</text><text x="366" y="386" textLength="12.2" class="Q AB">│</text><text x="1451.8" y="386" textLength="12.2" class="Q AB">│</text><text y="410.4" textLength="12.2" x="0" class="Q q">│</text><text x="61" y="410.4" textLength="36.6" class="O q">│  </text><text x="97.6" y="410.4" textLength="36.6" class="O q">├─ </text><text x="134.2" y="410.4" textLength="97.6" class="P q">surname </text><text x="231.8" y="410.4" textLength="12.2" class="P q">s</text><text x="353.8" y="410.4" textLength="12.2" class="Q q">│</text><text x="366" y="410.4" textLength="12.2" class="Q q">╰</text><text x="378.2" y="410.4" textLength="1073.6" class="Q q">────────────────────────────────────────────────────────────────────────────────────────</text><text x="1451.8" y="410.4" textLength="12.2" class="Q q">╯</text><text y="434.8" textLength="12.2" x="0" class="Q j">│</text><text x="61" y="434.8" textLength="36.6" class="O j">│  </text><text x="97.6" y="434.8" textLength="36.6" class="O j">└─ </text><text x="134.2" y="434.8" textLength="48.8" class="P j">url </text><text x="183" y="434.8" textLength="12.2" class="P j">s</text><text x="353.8" y="434.8" textLength="12.2" class="Q j">│</text><text x="1000.4" y="434.8" textLength="12.2" class="Q j">▐</text><text x="1012.6" y="434.8" textLength="12.2" class="S j y">X</text><text x="1024.8" y="434.8" textLength="12.2" class="Q j">▌</text><text x="1037" y="434.8" textLength="85.4" class="P j"> Limit </text><text x="1122.4" y="434.8" textLength="36.6" class="P j">500</text><text x="1268.8" y="434.8" textLength="134.2" fill="#ddd" class="S j"> Run Query </text><text y="459.2" textLength="12.2" x="0" class="Q m">│</text><text x="61" y="459.2" textLength="36.6" class="O m">├─ </text><text x="97.6" y="459.2" textLength="24.4" class="P m">▶ </text><text x="122" y="459.2" textLength="122" class="P m">lap_times </text><text x="244" y="459.2" textLength="12.2" class="P m">t</text><text x="353.8" y="459.2" textLength="12.2" class="Q m">│</text><text x="366" y="459.2" textLength="12.2" class="O m">╭</text><text x="378.2" y="459.2" textLength="12.2" class="O m">─</text><text x="390.4" y="459.2" textLength="353.8" class="O m"> Query Results (232 Records) </text><text x="744.2" y="459.2" textLength="707.6" class="O m">──────────────────────────────────────────────────────────</text><text x="1451.8" y="459.2" textLength="12.2" class="O m">╮</text><text y="483.6" textLength="12.2" x="0" class="Q a">│</text><text x="61" y="483.6" textLength="36.6" class="O a">├─ </text><text x="97.6" y="483.6" textLength="24.4" class="P a">▶ </text><text x="122" y="483.6" textLength="122" class="P a">pit_stops </text><text x="244" y="483.6" textLength="12.2" class="P a">t</text><text x="353.8" y="483.6" textLength="12.2" class="Q a">│</text><text x="366" y="483.6" textLength="12.2" class="O a">│</text><text x="378.2" y="483.6" textLength="195.2" class="O S a"> surname s      </text><text x="573.4" y="483.6" textLength="207.4" class="O S a"> forename s      </text><text x="780.8" y="483.6" textLength="183" class="O S a"> nationality s </text><text x="963.8" y="483.6" textLength="219.6" class="O S a"> avg_standing #.# </text><text x="1183.4" y="483.6" textLength="195.2" class="O S a"> avg_points #.# </text><text x="1451.8" y="483.6" textLength="12.2" class="O a">│</text><text y="508" textLength="12.2" x="0" class="Q b">│</text><text x="61" y="508" textLength="36.6" class="O b">├─ </text><text x="97.6" y="508" textLength="24.4" class="P b">▶ </text><text x="122" y="508" textLength="134.2" class="P b">qualifying </text><text x="256.2" y="508" textLength="12.2" class="P b">t</text><text x="353.8" y="508" textLength="12.2" class="Q b">│</text><text x="366" y="508" textLength="12.2" class="O b">│</text><text x="378.2" y="508" textLength="195.2" fill="#ebebeb" class="b"> Hamilton       </text><text x="573.4" y="508" textLength="207.4" class="P b"> Lewis           </text><text x="780.8" y="508" textLength="183" class="P b"> British       </text><text x="963.8" y="508" textLength="219.6" class="P b"> 2.66             </text><text x="1183.4" y="508" textLength="195.2" class="P b"> 146.66         </text><text x="1451.8" y="508" textLength="12.2" class="O b">│</text><text y="532.4" textLength="12.2" x="0" class="Q c">│</text><text x="61" y="532.4" textLength="36.6" class="O c">├─ </text><text x="97.6" y="532.4" textLength="24.4" class="P c">▶ </text><text x="122" y="532.4" textLength="73.2" class="P c">races </text><text x="195.2" y="532.4" textLength="12.2" class="P c">t</text><text x="353.8" y="532.4" textLength="12.2" class="Q c">│</text><text x="366" y="532.4" textLength="12.2" class="O c">│</text><text x="378.2" y="532.4" textLength="195.2" class="P c"> Prost          </text><text x="573.4" y="532.4" textLength="207.4" class="P c"> Alain           </text><text x="780.8" y="532.4" textLength="183" class="P c"> French        </text><text x="963.8" y="532.4" textLength="219.6" class="P c"> 3.51             </text><text x="1183.4" y="532.4" textLength="195.2" class="P c"> 33.48          </text><text x="1451.8" y="532.4" textLength="12.2" class="O c">│</text><text y="556.8" textLength="12.2" x="0" class="Q d">│</text><text x="61" y="556.8" textLength="36.6" class="O d">├─ </text><text x="97.6" y="556.8" textLength="24.4" class="P d">▶ </text><text x="122" y="556.8" textLength="97.6" class="P d">results </text><text x="219.6" y="556.8" textLength="12.2" class="P d">t</text><text x="353.8" y="556.8" textLength="12.2" class="Q d">│</text><text x="366" y="556.8" textLength="12.2" class="O d">│</text><text x="378.2" y="556.8" textLength="195.2" class="P d"> Stewart        </text><text x="573.4" y="556.8" textLength="207.4" class="P d"> Jackie          </text><text x="780.8" y="556.8" textLength="183" class="P d"> British       </text><text x="963.8" y="556.8" textLength="219.6" class="P d"> 3.78             </text><text x="1183.4" y="556.8" textLength="195.2" class="P d"> 24.75          </text><text x="1451.8" y="556.8" textLength="12.2" class="O d">│</text><text y="581.2" textLength="12.2" x="0" class="Q e">│</text><text x="61" y="581.2" textLength="36.6" class="O e">├─ </text><text x="97.6" y="581.2" textLength="24.4" class="P e">▶ </text><text x="122" y="581.2" textLength="97.6" class="P e">seasons </text><text x="219.6" y="581.2" textLength="12.2" class="P e">t</text><text x="353.8" y="581.2" textLength="12.2" class="Q e">│</text><text x="366" y="581.2" textLength="12.2" class="O e">│</text><text x="378.2" y="581.2" textLength="195.2" class="P e"> Schumacher     </text><text x="573.4" y="581.2" textLength="207.4" class="P e"> Michael         </text><text x="780.8" y="581.2" textLength="183" class="P e"> German        </text><text x="963.8" y="581.2" textLength="219.6" class="P e"> 4.33             </text><text x="1183.4" y="581.2" textLength="195.2" class="P e"> 46.37          </text><text x="1451.8" y="581.2" textLength="12.2" class="O e">│</text><text y="605.6" textLength="12.2" x="0" class="Q f">│</text><text x="61" y="605.6" textLength="36.6" class="O f">├─ </text><text x="97.6" y="605.6" textLength="24.4" class="P f">▶ </text><text x="122" y="605.6" textLength="183" class="P f">sprint_results </text><text x="305" y="605.6" textLength="12.2" class="P f">t</text><text x="353.8" y="605.6" textLength="12.2" class="Q f">│</text><text x="366" y="605.6" textLength="12.2" class="O f">│</text><text x="378.2" y="605.6" textLength="195.2" class="P f"> Verstappen     </text><text x="573.4" y="605.6" textLength="207.4" class="P f"> Max             </text><text x="780.8" y="605.6" textLength="183" class="P f"> Dutch         </text><text x="963.8" y="605.6" textLength="219.6" class="P f"> 5.09             </text><text x="1183.4" y="605.6" textLength="195.2" class="P f"> 125.30         </text><text x="1451.8" y="605.6" textLength="12.2" class="O f">│</text><text y="630" textLength="12.2" x="0" class="Q g">│</text><text x="61" y="630" textLength="36.6" class="O g">└─ </text><text x="97.6" y="630" textLength="24.4" class="P g">▶ </text><text x="122" y="630" textLength="85.4" class="P g">status </text><text x="207.4" y="630" textLength="12.2" class="P g">t</text><text x="353.8" y="630" textLength="12.2" class="Q g">│</text><text x="366" y="630" textLength="12.2" class="O g">│</text><text x="378.2" y="630" textLength="195.2" class="P g"> Fangio         </text><text x="573.4" y="630" textLength="207.4" class="P g"> Juan            </text><text x="780.8" y="630" textLength="183" class="P g"> Argentine     </text><text x="963.8" y="630" textLength="219.6" class="P g"> 5.22             </text><text x="1183.4" y="630" textLength="195.2" class="P g"> 16.88          </text><text x="1451.8" y="630" textLength="12.2" class="O g">│</text><text y="654.4" textLength="12.2" x="0" class="Q r">│</text><text x="353.8" y="654.4" textLength="12.2" class="Q r">│</text><text x="366" y="654.4" textLength="12.2" class="O r">│</text><text x="378.2" y="654.4" textLength="195.2" class="P r"> Pablo Montoya  </text><text x="573.4" y="654.4" textLength="207.4" class="P r"> Juan            </text><text x="780.8" y="654.4" textLength="183" class="P r"> Colombian     </text><text x="963.8" y="654.4" textLength="219.6" class="P r"> 5.25             </text><text x="1183.4" y="654.4" textLength="195.2" class="P r"> 27.33          </text><text x="1451.8" y="654.4" textLength="12.2" class="O r">│</text><text y="678.8" textLength="12.2" x="0" class="Q s">│</text><text x="353.8" y="678.8" textLength="12.2" class="Q s">│</text><text x="366" y="678.8" textLength="12.2" class="O s">│</text><text x="378.2" y="678.8" textLength="195.2" class="P s"> Farina         </text><text x="573.4" y="678.8" textLength="207.4" class="P s"> Nino            </text><text x="780.8" y="678.8" textLength="183" class="P s"> Italian       </text><text x="963.8" y="678.8" textLength="219.6" class="P s"> 5.27             </text><text x="1183.4" y="678.8" textLength="195.2" class="P s"> 11.01          </text><text x="1451.8" y="678.8" textLength="12.2" class="O s">│</text><text y="703.2" textLength="12.2" x="0" class="Q t">│</text><text x="353.8" y="703.2" textLength="12.2" class="Q t">│</text><text x="366" y="703.2" textLength="12.2" class="O t">│</text><text x="378.2" y="703.2" textLength="195.2" class="P t"> Hulme          </text><text x="573.4" y="703.2" textLength="207.4" class="P t"> Denny           </text><text x="780.8" y="703.2" textLength="183" class="P t"> New Zealander </text><text x="963.8" y="703.2" textLength="219.6" class="P t"> 5.34             </text><text x="1183.4" y="703.2" textLength="195.2" class="P t"> 14.58          </text><text x="1451.8" y="703.2" textLength="12.2" class="O t">│</text><text y="727.6" textLength="12.2" x="0" class="Q u">│</text><text x="353.8" y="727.6" textLength="12.2" class="Q u">│</text><text x="366" y="727.6" textLength="12.2" class="O u">│</text><text x="378.2" y="727.6" textLength="195.2" class="P u"> Fagioli        </text><text x="573.4" y="727.6" textLength="207.4" class="P u"> Luigi           </text><text x="780.8" y="727.6" textLength="183" class="P u"> Italian       </text><text x="963.8" y="727.6" textLength="219.6" class="P u"> 5.67             </text><text x="1183.4" y="727.6" textLength="195.2" class="P u"> 9.67           </text><text x="1451.8" y="727.6" textLength="12.2" class="O u">│</text><text y="752" textLength="12.2" x="0" class="Q v">│</text><text x="353.8" y="752" textLength="12.2" class="Q v">│</text><text x="366" y="752" textLength="12.2" class="O v">│</text><text x="378.2" y="752" textLength="195.2" class="P v"> Clark          </text><text x="573.4" y="752" textLength="207.4" class="P v"> Jim             </text><text x="780.8" y="752" textLength="183" class="P v"> British       </text><text x="963.8" y="752" textLength="219.6" class="P v"> 5.81             </text><text x="1183.4" y="752" textLength="195.2" class="P v"> 17.63          </text><text x="1451.8" y="752" textLength="12.2" class="O v">│</text><text y="776.4" textLength="12.2" x="0" class="Q w">│</text><text x="353.8" y="776.4" textLength="12.2" class="Q w">│</text><text x="366" y="776.4" textLength="12.2" class="O w">│</text><text x="378.2" y="776.4" textLength="195.2" class="P w"> Vettel         </text><text x="573.4" y="776.4" textLength="207.4" class="P w"> Sebastian       </text><text x="780.8" y="776.4" textLength="183" class="P w"> German        </text><text x="963.8" y="776.4" textLength="219.6" class="P w"> 5.84             </text><text x="1183.4" y="776.4" textLength="195.2" class="P w"> 107.11         </text><text x="1451.8" y="776.4" textLength="12.2" class="O w">│</text><text y="800.8" textLength="12.2" x="0" class="Q x">│</text><text x="353.8" y="800.8" textLength="12.2" class="Q x">│</text><text x="366" y="800.8" textLength="12.2" class="O x">│</text><text x="378.2" y="800.8" textLength="195.2" class="P x"> Senna          </text><text x="573.4" y="800.8" textLength="207.4" class="P x"> Ayrton          </text><text x="780.8" y="800.8" textLength="183" class="P x"> Brazilian     </text><text x="963.8" y="800.8" textLength="219.6" class="P x"> 5.92             </text><text x="1183.4" y="800.8" textLength="195.2" class="P x"> 31.61          </text><text x="1451.8" y="800.8" textLength="12.2" class="O x">│</text><text y="825.2" textLength="12.2" x="0" class="Q p">│</text><text x="268.4" y="825.2" textLength="12.2" class="Q p">▌</text><text x="353.8" y="825.2" textLength="12.2" class="Q p">│</text><text x="366" y="825.2" textLength="12.2" class="O p">│</text><text x="378.2" y="825.2" textLength="195.2" class="P p"> Bottas         </text><text x="573.4" y="825.2" textLength="207.4" class="P p"> Valtteri        </text><text x="780.8" y="825.2" textLength="183" class="P p"> Finnish       </text><text x="963.8" y="825.2" textLength="219.6" class="P p"> 5.99             </text><text x="1183.4" y="825.2" textLength="195.2" class="P p"> 96.06          </text><text x="1451.8" y="825.2" textLength="12.2" class="O p">│</text><text y="849.6" textLength="12.2" x="0" class="Q AD">╰</text><text x="12.2" y="849.6" textLength="341.6" class="Q AD">────────────────────────────</text><text x="353.8" y="849.6" textLength="12.2" class="Q AD">╯</text><text x="366" y="849.6" textLength="12.2" class="O AD">╰</text><text x="378.2" y="849.6" textLength="1073.6" class="O AD">────────────────────────────────────────────────────────────────────────────────────────</text><text x="1451.8" y="849.6" textLength="12.2" class="O AD">╯</text><text y="874" textLength="97.6" x="0" class="O AE"> CTRL+Q </text><text x="97.6" y="874" textLength="73.2" fill="#666" class="AE"> Quit </text><text x="170.8" y="874" textLength="48.8" class="O AE"> F1 </text><text x="219.6" y="874" textLength="73.2" fill="#666" class="AE"> Help </text></g></g></svg>