<svg xmlns="http://www.w3.org/2000/svg" xmlns:xlink="http://www.w3.org/1999/xlink" viewBox="0 0 1482 928.4" xmlns:v="https://vecta.io/nano"><style><![CDATA[.L{shape-rendering:crispEdges}.M{fill:#000}.N{fill:#888}.O{fill:#212121}.P{fill:#c5c8c6}.Q{font-weight:bold}.R{clip-path:url(#J)}.S{clip-path:url(#K)}.T{clip-path:url(#U)}.U{clip-path:url(#G)}.V{clip-path:url(#H)}.W{clip-path:url(#L)}.X{clip-path:url(#M)}.Y{clip-path:url(#V)}.Z{clip-path:url(#W)}.a{clip-path:url(#X)}.b{clip-path:url(#Y)}.c{clip-path:url(#Z)}.d{clip-path:url(#a)}.e{clip-path:url(#E)}.f{clip-path:url(#N)}.g{clip-path:url(#S)}.h{clip-path:url(#D)}.i{clip-path:url(#F)}.j{clip-path:url(#T)}.k{clip-path:url(#B)}.l{clip-path:url(#I)}.m{clip-path:url(#i)}.n{clip-path:url(#R)}.o{clip-path:url(#b)}.p{clip-path:url(#c)}.q{clip-path:url(#d)}.r{clip-path:url(#e)}.s{clip-path:url(#f)}.t{clip-path:url(#g)}.u{clip-path:url(#h)}.v{fill:#fff}.w{clip-path:url(#O)}.x{clip-path:url(#P)}.y{clip-path:url(#Q)}.z{clip-path:url(#C)}.AA{clip-path:url(#j)}.AB{clip-path:url(#terminal-3612397463-line-35)}]]></style><defs><style>@font-face{font-family:"Fira Code";src:local("FiraCode-Regular"), url("https://cdnjs.cloudflare.com/ajax/libs/firacode/6.2.0/woff2/FiraCode-Regular.woff2") format("woff2"), url("https://cdnjs.cloudflare.com/ajax/libs/firacode/6.2.0/woff/FiraCode-Regular.woff") format("woff");font-style:normal;font-weight:400} @font-face{font-family:"Fira Code";src:local("FiraCode-Bold"), url("https://cdnjs.cloudflare.com/ajax/libs/firacode/6.2.0/woff2/FiraCode-Bold.woff2") format("woff2"), url("https://cdnjs.cloudflare.com/ajax/libs/firacode/6.2.0/woff/FiraCode-Bold.woff") format("woff");font-style:bold;font-weight:700}</style><clipPath id="A"><path d="M0 0h1463v877.4H0z"/></clipPath><clipPath id="B"><path d="M0 1.5h1464v24.65H0z"/></clipPath><clipPath id="C"><path d="M0 25.9h1464v24.65H0z"/></clipPath><clipPath id="D"><path d="M0 50.3h1464v24.65H0z"/></clipPath><clipPath id="E"><path d="M0 74.7h1464v24.65H0z"/></clipPath><clipPath id="F"><path d="M0 99.1h1464v24.65H0z"/></clipPath><clipPath id="G"><path d="M0 123.5h1464v24.65H0z"/></clipPath><clipPath id="H"><path d="M0 147.9h1464v24.65H0z"/></clipPath><clipPath id="I"><path d="M0 172.3h1464v24.65H0z"/></clipPath><clipPath id="J"><path d="M0 196.7h1464v24.65H0z"/></clipPath><clipPath id="K"><path d="M0 221.1h1464v24.65H0z"/></clipPath><clipPath id="L"><path d="M0 245.5h1464v24.65H0z"/></clipPath><clipPath id="M"><path d="M0 269.9h1464v24.65H0z"/></clipPath><clipPath id="N"><path d="M0 294.3h1464v24.65H0z"/></clipPath><clipPath id="O"><path d="M0 318.7h1464v24.65H0z"/></clipPath><clipPath id="P"><path d="M0 343.1h1464v24.65H0z"/></clipPath><clipPath id="Q"><path d="M0 367.5h1464v24.65H0z"/></clipPath><clipPath id="R"><path d="M0 391.9h1464v24.65H0z"/></clipPath><clipPath id="S"><path d="M0 416.3h1464v24.65H0z"/></clipPath><clipPath id="T"><path d="M0 440.7h1464v24.65H0z"/></clipPath><clipPath id="U"><path d="M0 465.1h1464v24.65H0z"/></clipPath><clipPath id="V"><path d="M0 489.5h1464v24.65H0z"/></clipPath><clipPath id="W"><path d="M0 513.9h1464v24.65H0z"/></clipPath><clipPath id="X"><path d="M0 538.3h1464v24.65H0z"/></clipPath><clipPath id="Y"><path d="M0 562.7h1464v24.65H0z"/></clipPath><clipPath id="Z"><path d="M0 587.1h1464v24.65H0z"/></clipPath><clipPath id="a"><path d="M0 611.5h1464v24.65H0z"/></clipPath><clipPath id="b"><path d="M0 635.9h1464v24.65H0z"/></clipPath><clipPath id="c"><path d="M0 660.3h1464v24.65H0z"/></clipPath><clipPath id="d"><path d="M0 684.7h1464v24.65H0z"/></clipPath><clipPath id="e"><path d="M0 709.1h1464v24.65H0z"/></clipPath><clipPath id="f"><path d="M0 733.5h1464v24.65H0z"/></clipPath><clipPath id="g"><path d="M0 757.9h1464v24.65H0z"/></clipPath><clipPath id="h"><path d="M0 782.3h1464v24.65H0z"/></clipPath><clipPath id="i"><path d="M0 806.7h1464v24.65H0z"/></clipPath><clipPath id="j"><path d="M0 831.1h1464v24.65H0z"/></clipPath><path id="k" d="M0 1.5h12.2v24.65H0z"/><path id="l" d="M12.2 1.5h12.2v24.65H12.2z"/><path id="m" d="M353.8 1.5H366v24.65h-12.2z"/><path id="n" d="M366 1.5h12.2v24.65H366z"/><path id="o" d="M378.2 1.5h12.2v24.65h-12.2z"/><path id="p" d="M24.4 50.3H61v24.65H24.4z"/><path id="q" d="M390.4 50.3h48.8v24.65h-48.8z"/><path id="r" d="M61 74.7h36.6v24.65H61z"/><path id="s" d="M97.6 74.7H122v24.65H97.6z"/><path id="t" d="M378.2 489.5h195.2v24.65H378.2z"/><path id="u" d="M573.4 489.5h207.4v24.65H573.4z"/><path id="v" d="M780.8 489.5h183v24.65h-183z"/><path id="w" d="M963.8 489.5h219.6v24.65H963.8z"/><path id="x" d="M1183.4 489.5h195.2v24.65h-195.2z"/></defs><rect fill="#292929" stroke="rgba(255,255,255,0.35)" x="1" y="1" width="1480" height="926.4" rx="8"/><text text-anchor="middle" x="740" y="27" font-size="18" font-family="arial" class="P Q">Harlequin</text><circle cx="26" cy="22" r="7" fill="#ff5f57"/><circle cx="48" cy="22" r="7" fill="#febc2e"/><circle cx="70" cy="22" r="7" fill="#28c840"/><g transform="translate(9 41)" clip-path="url(#A)"><g class="v L"><use xlink:href="#k"/><use xlink:href="#l"/><path d="M24.4 1.5h170.8v24.65H24.4z"/><path d="M195.2 1.5h158.6v24.65H195.2z"/><use xlink:href="#m"/><use xlink:href="#n"/><use xlink:href="#o"/><path d="M390.4 1.5h170.8v24.65H390.4z"/><path d="M561.2 1.5h890.6v24.65H561.2z"/><path d="M1451.8 1.5h12.2v24.65h-12.2zM0 25.9h12.2v24.65H0z"/><path d="M12.2 25.9h12.2v24.65H12.2z"/><path d="M24.4 25.9h24.4v24.65H24.4z"/><path d="M48.8 25.9h24.4v24.65H48.8z"/><path d="M73.2 25.9h268.4v24.65H73.2z"/><path d="M341.6 25.9h12.2v24.65h-12.2z"/><path d="M353.8 25.9H366v24.65h-12.2z"/><path d="M366 25.9h12.2v24.65H366z"/><path d="M378.2 25.9h12.2v24.65h-12.2z"/><path d="M390.4 25.9h73.2v24.65h-73.2z"/><path d="M463.6 25.9h12.2v24.65h-12.2z"/><path d="M475.8 25.9h963.8v24.65H475.8z"/><path d="M1439.6 25.9h12.2v24.65h-12.2z"/><path d="M1451.8 25.9h12.2v24.65h-12.2zM0 50.3h12.2v24.65H0z"/><path d="M12.2 50.3h12.2v24.65H12.2z"/><use xlink:href="#p"/><path d="M61 50.3h24.4v24.65H61z"/><path d="M85.4 50.3h48.8v24.65H85.4z"/><path d="M134.2 50.3h207.4v24.65H134.2z"/><path d="M341.6 50.3h12.2v24.65h-12.2z"/><path d="M353.8 50.3H366v24.65h-12.2z"/><path d="M366 50.3h12.2v24.65H366z"/><path d="M378.2 50.3h12.2v24.65h-12.2z"/><use xlink:href="#q"/><path d="M439.2 50.3h85.4v24.65h-85.4z"/><path d="M524.6 50.3h12.2v24.65h-12.2z"/><path d="M536.8 50.3h85.4v24.65h-85.4z"/><path d="M622.2 50.3h12.2v24.65h-12.2z"/><path d="M634.4 50.3h12.2v24.65h-12.2z"/><path d="M646.6 50.3h793v24.65h-793z"/><path d="M1439.6 50.3h12.2v24.65h-12.2z"/><path d="M1451.8 50.3h12.2v24.65h-12.2zM0 74.7h12.2v24.65H0z"/><path d="M12.2 74.7h12.2v24.65H12.2z"/><path d="M24.4 74.7H61v24.65H24.4z"/><use xlink:href="#r"/><use xlink:href="#s"/><path d="M122 74.7h109.8v24.65H122z"/><path d="M231.8 74.7H244v24.65h-12.2z"/><path d="M244 74.7h97.6v24.65H244z"/><path d="M341.6 74.7h12.2v24.65h-12.2z"/><path d="M353.8 74.7H366v24.65h-12.2z"/><path d="M366 74.7h12.2v24.65H366z"/><path d="M378.2 74.7h12.2v24.65h-12.2z"/><path d="M390.4 74.7h48.8v24.65h-48.8z"/><path d="M439.2 74.7h85.4v24.65h-85.4z"/><path d="M524.6 74.7h12.2v24.65h-12.2z"/><path d="M536.8 74.7h97.6v24.65h-97.6z"/><path d="M634.4 74.7h12.2v24.65h-12.2z"/><path d="M646.6 74.7h12.2v24.65h-12.2z"/><path d="M658.8 74.7h780.8v24.65H658.8z"/><path d="M1439.6 74.7h12.2v24.65h-12.2z"/><path d="M1451.8 74.7h12.2v24.65h-12.2zM0 99.1h12.2v24.65H0z"/><path d="M12.2 99.1h12.2v24.65H12.2z"/><path d="M24.4 99.1H61v24.65H24.4z"/><path d="M61 99.1h36.6v24.65H61z"/><path d="M97.6 99.1H122v24.65H97.6z"/><path d="M122 99.1h219.6v24.65H122z"/><path d="M341.6 99.1h12.2v24.65h-12.2z"/><path d="M353.8 99.1H366v24.65h-12.2z"/><path d="M366 99.1h12.2v24.65H366z"/><path d="M378.2 99.1h12.2v24.65h-12.2z"/><path d="M390.4 99.1h48.8v24.65h-48.8z"/><path d="M439.2 99.1h85.4v24.65h-85.4z"/><path d="M524.6 99.1h12.2v24.65h-12.2z"/><path d="M536.8 99.1H671v24.65H536.8z"/><path d="M671 99.1h12.2v24.65H671z"/><path d="M683.2 99.1h12.2v24.65h-12.2z"/><path d="M695.4 99.1h744.2v24.65H695.4z"/><path d="M1439.6 99.1h12.2v24.65h-12.2z"/><path d="M1451.8 99.1h12.2v24.65h-12.2zM0 123.5h12.2v24.65H0z"/><path d="M12.2 123.5h12.2v24.65H12.2z"/><path d="M24.4 123.5H61v24.65H24.4z"/><path d="M61 123.5h36.6v24.65H61z"/><path d="M97.6 123.5H122v24.65H97.6z"/><path d="M122 123.5h219.6v24.65H122z"/><path d="M341.6 123.5h12.2v24.65h-12.2z"/><path d="M353.8 123.5H366v24.65h-12.2z"/><path d="M366 123.5h12.2v24.65H366z"/><path d="M378.2 123.5h12.2v24.65h-12.2z"/><path d="M390.4 123.5h48.8v24.65h-48.8z"/><path d="M439.2 123.5h36.6v24.65h-36.6z"/><path d="M475.8 123.5H488v24.65h-12.2z"/><path d="M488 123.5h195.2v24.65H488z"/><path d="M683.2 123.5h12.2v24.65h-12.2z"/><path d="M695.4 123.5H793v24.65h-97.6z"/><path d="M793 123.5h12.2v24.65H793z"/><path d="M805.2 123.5h12.2v24.65h-12.2z"/><path d="M817.4 123.5h24.4v24.65h-24.4z"/><path d="M841.8 123.5H854v24.65h-12.2z"/><path d="M854 123.5h146.4v24.65H854z"/><path d="M1000.4 123.5h12.2v24.65h-12.2z"/><path d="M1012.6 123.5h12.2v24.65h-12.2z"/><path d="M1024.8 123.5h414.8v24.65h-414.8z"/><path d="M1439.6 123.5h12.2v24.65h-12.2z"/><path d="M1451.8 123.5h12.2v24.65h-12.2zM0 147.9h12.2v24.65H0z"/><path d="M12.2 147.9h12.2v24.65H12.2z"/><path d="M24.4 147.9H61v24.65H24.4z"/><path d="M61 147.9h36.6v24.65H61z"/><path d="M97.6 147.9H122v24.65H97.6z"/><path d="M122 147.9h158.6v24.65H122z"/><path d="M280.6 147.9h12.2v24.65h-12.2z"/><path d="M292.8 147.9h48.8v24.65h-48.8z"/><path d="M341.6 147.9h12.2v24.65h-12.2z"/><path d="M353.8 147.9H366v24.65h-12.2z"/><path d="M366 147.9h12.2v24.65H366z"/><path d="M378.2 147.9h12.2v24.65h-12.2z"/><path d="M390.4 147.9h48.8v24.65h-48.8z"/><path d="M439.2 147.9h36.6v24.65h-36.6z"/><path d="M475.8 147.9H488v24.65h-12.2z"/><path d="M488 147.9h195.2v24.65H488z"/><path d="M683.2 147.9h12.2v24.65h-12.2z"/><path d="M695.4 147.9h73.2v24.65h-73.2z"/><path d="M768.6 147.9h12.2v24.65h-12.2z"/><path d="M780.8 147.9H793v24.65h-12.2z"/><path d="M793 147.9h24.4v24.65H793z"/><path d="M817.4 147.9h12.2v24.65h-12.2z"/><path d="M829.6 147.9h122v24.65h-122z"/><path d="M951.6 147.9h12.2v24.65h-12.2z"/><path d="M963.8 147.9h475.8v24.65H963.8z"/><path d="M1439.6 147.9h12.2v24.65h-12.2z"/><path d="M1451.8 147.9h12.2v24.65h-12.2zM0 172.3h12.2v24.65H0z"/><path d="M12.2 172.3h12.2v24.65H12.2z"/><path d="M24.4 172.3H61v24.65H24.4z"/><path d="M61 172.3h36.6v24.65H61z"/><path d="M97.6 172.3H122v24.65H97.6z"/><path d="M122 172.3h207.4v24.65H122z"/><path d="M329.4 172.3h12.2v24.65h-12.2z"/><path d="M341.6 172.3h12.2v24.65h-12.2z"/><path d="M353.8 172.3H366v24.65h-12.2z"/><path d="M366 172.3h12.2v24.65H366z"/><path d="M378.2 172.3h12.2v24.65h-12.2z"/><path d="M390.4 172.3h48.8v24.65h-48.8z"/><path d="M439.2 172.3h12.2v24.65h-12.2z"/><path d="M451.4 172.3h195.2v24.65H451.4z"/><path d="M646.6 172.3h12.2v24.65h-12.2z"/><path d="M658.8 172.3h780.8v24.65H658.8z"/><path d="M1439.6 172.3h12.2v24.65h-12.2z"/><path d="M1451.8 172.3h12.2v24.65h-12.2zM0 196.7h12.2v24.65H0z"/><path d="M12.2 196.7h12.2v24.65H12.2z"/><path d="M24.4 196.7H61v24.65H24.4z"/><path d="M61 196.7h36.6v24.65H61z"/><path d="M97.6 196.7H122v24.65H97.6z"/></g><path d="M122 196.7h97.6v24.65H122z" class="L"/><path d="M219.6 196.7h12.2v24.65h-12.2z" class="L"/><g class="v L"><path d="M231.8 196.7h109.8v24.65H231.8z"/><path d="M341.6 196.7h12.2v24.65h-12.2z"/><path d="M353.8 196.7H366v24.65h-12.2z"/><path d="M366 196.7h12.2v24.65H366z"/><path d="M378.2 196.7h12.2v24.65h-12.2z"/><path d="M390.4 196.7h48.8v24.65h-48.8z"/><path d="M439.2 196.7h12.2v24.65h-12.2z"/><path d="M451.4 196.7h85.4v24.65h-85.4z"/><path d="M536.8 196.7H549v24.65h-12.2z"/><path d="M549 196.7h24.4v24.65H549z"/><path d="M573.4 196.7h12.2v24.65h-12.2z"/><path d="M585.6 196.7h195.2v24.65H585.6z"/><path d="M780.8 196.7H793v24.65h-12.2z"/><path d="M793 196.7h97.6v24.65H793z"/><path d="M890.6 196.7h12.2v24.65h-12.2z"/><path d="M902.8 196.7H915v24.65h-12.2z"/><path d="M915 196.7h12.2v24.65H915z"/><path d="M927.2 196.7h85.4v24.65h-85.4z"/><path d="M1012.6 196.7h12.2v24.65h-12.2z"/><path d="M1024.8 196.7h97.6v24.65h-97.6z"/><path d="M1122.4 196.7h12.2v24.65h-12.2z"/><path d="M1134.6 196.7h305v24.65h-305z"/><path d="M1439.6 196.7h12.2v24.65h-12.2z"/><path d="M1451.8 196.7h12.2v24.65h-12.2zM0 221.1h12.2v24.65H0z"/><path d="M12.2 221.1h12.2v24.65H12.2z"/><path d="M24.4 221.1H61v24.65H24.4z"/><path d="M61 221.1h36.6v24.65H61z"/><path d="M97.6 221.1h36.6v24.65H97.6z"/><path d="M134.2 221.1h61v24.65h-61z"/><path d="M195.2 221.1h12.2v24.65h-12.2z"/><path d="M207.4 221.1h134.2v24.65H207.4z"/><path d="M341.6 221.1h12.2v24.65h-12.2z"/><path d="M353.8 221.1H366v24.65h-12.2z"/><path d="M366 221.1h12.2v24.65H366z"/><path d="M378.2 221.1h12.2v24.65h-12.2z"/><path d="M390.4 221.1h48.8v24.65h-48.8z"/><path d="M439.2 221.1h12.2v24.65h-12.2z"/><path d="M451.4 221.1h61v24.65h-61z"/><path d="M512.4 221.1h12.2v24.65h-12.2z"/><path d="M524.6 221.1H549v24.65h-24.4z"/><path d="M549 221.1h12.2v24.65H549z"/><path d="M561.2 221.1h195.2v24.65H561.2z"/><path d="M756.4 221.1h12.2v24.65h-12.2z"/><path d="M768.6 221.1h73.2v24.65h-73.2z"/><path d="M841.8 221.1H854v24.65h-12.2z"/><path d="M854 221.1h12.2v24.65H854z"/><path d="M866.2 221.1h12.2v24.65h-12.2z"/><path d="M878.4 221.1h61v24.65h-61z"/><path d="M939.4 221.1h12.2v24.65h-12.2z"/><path d="M951.6 221.1h73.2v24.65h-73.2z"/><path d="M1024.8 221.1h12.2v24.65h-12.2z"/><path d="M1037 221.1h402.6v24.65H1037z"/><path d="M1439.6 221.1h12.2v24.65h-12.2z"/><path d="M1451.8 221.1h12.2v24.65h-12.2zM0 245.5h12.2v24.65H0z"/><path d="M12.2 245.5h12.2v24.65H12.2z"/><path d="M24.4 245.5H61v24.65H24.4z"/><path d="M61 245.5h36.6v24.65H61z"/><path d="M97.6 245.5h36.6v24.65H97.6z"/><path d="M134.2 245.5H183v24.65h-48.8z"/><path d="M183 245.5h12.2v24.65H183z"/><path d="M195.2 245.5h146.4v24.65H195.2z"/><path d="M341.6 245.5h12.2v24.65h-12.2z"/><path d="M353.8 245.5H366v24.65h-12.2z"/><path d="M366 245.5h12.2v24.65H366z"/><path d="M378.2 245.5h12.2v24.65h-12.2z"/></g><g fill="#ffc" class="L"><path d="M390.4 245.5h61v24.65h-61z"/><path d="M451.4 245.5h12.2v24.65h-12.2z"/><path d="M463.6 245.5H488v24.65h-24.4z"/><path d="M488 245.5h12.2v24.65H488z"/><path d="M500.2 245.5h12.2v24.65h-12.2z"/><path d="M512.4 245.5h12.2v24.65h-12.2z"/><path d="M524.6 245.5h12.2v24.65h-12.2z"/><path d="M536.8 245.5H549v24.65h-12.2z"/><path d="M549 245.5h12.2v24.65H549z"/><path d="M561.2 245.5h12.2v24.65h-12.2z"/><path d="M573.4 245.5h12.2v24.65h-12.2z"/></g><g class="v L"><path d="M585.6 245.5h12.2v24.65h-12.2z"/><path d="M597.8 245.5h841.8v24.65H597.8z"/><path d="M1439.6 245.5h12.2v24.65h-12.2z"/><path d="M1451.8 245.5h12.2v24.65h-12.2zM0 269.9h12.2v24.65H0z"/><path d="M12.2 269.9h12.2v24.65H12.2z"/><path d="M24.4 269.9H61v24.65H24.4z"/><path d="M61 269.9h36.6v24.65H61z"/><path d="M97.6 269.9h36.6v24.65H97.6z"/><path d="M134.2 269.9H244v24.65H134.2z"/><path d="M244 269.9h24.4v24.65H244z"/><path d="M268.4 269.9h73.2v24.65h-73.2z"/><path d="M341.6 269.9h12.2v24.65h-12.2z"/><path d="M353.8 269.9H366v24.65h-12.2z"/><path d="M366 269.9h12.2v24.65H366z"/><path d="M378.2 269.9h12.2v24.65h-12.2z"/><path d="M390.4 269.9h73.2v24.65h-73.2z"/><path d="M463.6 269.9h12.2v24.65h-12.2z"/><path d="M475.8 269.9h146.4v24.65H475.8z"/><path d="M622.2 269.9h12.2v24.65h-12.2z"/><path d="M634.4 269.9h12.2v24.65h-12.2z"/><path d="M646.6 269.9h12.2v24.65h-12.2z"/><path d="M658.8 269.9H671v24.65h-12.2z"/><path d="M671 269.9h24.4v24.65H671z"/><path d="M695.4 269.9h12.2v24.65h-12.2z"/><path d="M707.6 269.9h732v24.65h-732z"/><path d="M1439.6 269.9h12.2v24.65h-12.2z"/><path d="M1451.8 269.9h12.2v24.65h-12.2zM0 294.3h12.2v24.65H0z"/><path d="M12.2 294.3h12.2v24.65H12.2z"/><path d="M24.4 294.3H61v24.65H24.4z"/><path d="M61 294.3h36.6v24.65H61z"/><path d="M97.6 294.3h36.6v24.65H97.6z"/><path d="M134.2 294.3h122v24.65h-122z"/><path d="M256.2 294.3h12.2v24.65h-12.2z"/><path d="M268.4 294.3h73.2v24.65h-73.2z"/><path d="M341.6 294.3h12.2v24.65h-12.2z"/><path d="M353.8 294.3H366v24.65h-12.2z"/><path d="M366 294.3h12.2v24.65H366z"/><path d="M378.2 294.3h12.2v24.65h-12.2z"/><path d="M390.4 294.3h61v24.65h-61z"/><path d="M451.4 294.3h12.2v24.65h-12.2z"/><path d="M463.6 294.3H488v24.65h-24.4z"/><path d="M488 294.3h12.2v24.65H488z"/><path d="M500.2 294.3h146.4v24.65H500.2z"/><path d="M646.6 294.3h12.2v24.65h-12.2z"/><path d="M658.8 294.3h36.6v24.65h-36.6z"/><path d="M695.4 294.3h12.2v24.65h-12.2z"/><path d="M707.6 294.3h732v24.65h-732z"/><path d="M1439.6 294.3h12.2v24.65h-12.2z"/><path d="M1451.8 294.3h12.2v24.65h-12.2zM0 318.7h12.2v24.65H0z"/><path d="M12.2 318.7h12.2v24.65H12.2z"/><path d="M24.4 318.7H61v24.65H24.4z"/><path d="M61 318.7h36.6v24.65H61z"/><path d="M97.6 318.7h36.6v24.65H97.6z"/><path d="M134.2 318.7H244v24.65H134.2z"/><path d="M244 318.7h12.2v24.65H244z"/><path d="M256.2 318.7h85.4v24.65h-85.4z"/><path d="M341.6 318.7h12.2v24.65h-12.2z"/><path d="M353.8 318.7H366v24.65h-12.2z"/><path d="M366 318.7h12.2v24.65H366z"/><path d="M378.2 318.7h12.2v24.65h-12.2z"/><path d="M390.4 318.7h1049.2v24.65H390.4z"/><path d="M1439.6 318.7h12.2v24.65h-12.2z"/><path d="M1451.8 318.7h12.2v24.65h-12.2zM0 343.1h12.2v24.65H0z"/><path d="M12.2 343.1h12.2v24.65H12.2z"/><path d="M24.4 343.1H61v24.65H24.4z"/><path d="M61 343.1h36.6v24.65H61z"/><path d="M97.6 343.1h36.6v24.65H97.6z"/><path d="M134.2 343.1h146.4v24.65H134.2z"/><path d="M280.6 343.1h12.2v24.65h-12.2z"/><path d="M292.8 343.1h48.8v24.65h-48.8z"/><path d="M341.6 343.1h12.2v24.65h-12.2z"/><path d="M353.8 343.1H366v24.65h-12.2z"/><path d="M366 343.1h12.2v24.65H366z"/><path d="M378.2 343.1h12.2v24.65h-12.2z"/><path d="M390.4 343.1h1049.2v24.65H390.4z"/><path d="M1439.6 343.1h12.2v24.65h-12.2z"/><path d="M1451.8 343.1h12.2v24.65h-12.2zM0 367.5h12.2v24.65H0z"/><path d="M12.2 367.5h12.2v24.65H12.2z"/><path d="M24.4 367.5H61v24.65H24.4z"/><path d="M61 367.5h36.6v24.65H61z"/><path d="M97.6 367.5h36.6v24.65H97.6z"/><path d="M134.2 367.5h85.4v24.65h-85.4z"/><path d="M219.6 367.5h12.2v24.65h-12.2z"/><path d="M231.8 367.5h109.8v24.65H231.8z"/><path d="M341.6 367.5h12.2v24.65h-12.2z"/><path d="M353.8 367.5H366v24.65h-12.2z"/><path d="M366 367.5h12.2v24.65H366z"/><path d="M378.2 367.5h1073.6v24.65H378.2z"/><path d="M1451.8 367.5h12.2v24.65h-12.2zM0 391.9h12.2v24.65H0z"/><path d="M12.2 391.9h12.2v24.65H12.2z"/><path d="M24.4 391.9H61v24.65H24.4z"/><path d="M61 391.9h36.6v24.65H61z"/><path d="M97.6 391.9h36.6v24.65H97.6z"/><path d="M134.2 391.9h97.6v24.65h-97.6z"/><path d="M231.8 391.9H244v24.65h-12.2z"/><path d="M244 391.9h97.6v24.65H244z"/><path d="M341.6 391.9h12.2v24.65h-12.2z"/><path d="M353.8 391.9H366v24.65h-12.2z"/><path d="M366 391.9h12.2v24.65H366z"/><path d="M378.2 391.9h1073.6v24.65H378.2z"/><path d="M1451.8 391.9h12.2v24.65h-12.2zM0 416.3h12.2v24.65H0z"/><path d="M12.2 416.3h12.2v24.65H12.2z"/><path d="M24.4 416.3H61v24.65H24.4z"/><path d="M61 416.3h36.6v24.65H61z"/><path d="M97.6 416.3h36.6v24.65H97.6z"/><path d="M134.2 416.3H183v24.65h-48.8z"/><path d="M183 416.3h12.2v24.65H183z"/><path d="M195.2 416.3h146.4v24.65H195.2z"/><path d="M341.6 416.3h12.2v24.65h-12.2z"/><path d="M353.8 416.3H366v24.65h-12.2z"/><path d="M366 416.3h634.4v24.65H366z"/><path d="M1000.4 416.3h12.2v24.65h-12.2z"/></g><path d="M1012.6 416.3h12.2v24.65h-12.2z" class="L N"/><g class="v L"><path d="M1024.8 416.3h12.2v24.65h-12.2z"/><path d="M1037 416.3h85.4v24.65H1037z"/><path d="M1122.4 416.3h36.6v24.65h-36.6z"/><path d="M1159 416.3h36.6v24.65H1159z"/><path d="M1195.6 416.3h48.8v24.65h-48.8z"/></g><path d="M1244.4 416.3h24.4v24.65h-24.4z" class="L"/><path d="M1268.8 416.3H1403v24.65h-134.2z" class="L"/><path d="M1403 416.3h36.6v24.65H1403z" class="L"/><g class="v L"><path d="M1439.6 416.3h24.4v24.65h-24.4zM0 440.7h12.2v24.65H0z"/><path d="M12.2 440.7h12.2v24.65H12.2z"/><path d="M24.4 440.7H61v24.65H24.4z"/><path d="M61 440.7h36.6v24.65H61z"/><path d="M97.6 440.7H122v24.65H97.6z"/><path d="M122 440.7h122v24.65H122z"/><path d="M244 440.7h12.2v24.65H244z"/><path d="M256.2 440.7h85.4v24.65h-85.4z"/><path d="M341.6 440.7h12.2v24.65h-12.2z"/><path d="M353.8 440.7H366v24.65h-12.2z"/><path d="M366 440.7h12.2v24.65H366z"/><path d="M378.2 440.7h12.2v24.65h-12.2z"/><path d="M390.4 440.7h353.8v24.65H390.4z"/><path d="M744.2 440.7h707.6v24.65H744.2z"/><path d="M1451.8 440.7h12.2v24.65h-12.2zM0 465.1h12.2v24.65H0z"/><path d="M12.2 465.1h12.2v24.65H12.2z"/><path d="M24.4 465.1H61v24.65H24.4z"/><path d="M61 465.1h36.6v24.65H61z"/><path d="M97.6 465.1H122v24.65H97.6z"/><path d="M122 465.1h122v24.65H122z"/><path d="M244 465.1h12.2v24.65H244z"/><path d="M256.2 465.1h85.4v24.65h-85.4z"/><path d="M341.6 465.1h12.2v24.65h-12.2z"/><path d="M353.8 465.1H366v24.65h-12.2z"/><path d="M366 465.1h12.2v24.65H366z"/><path d="M378.2 465.1H488v24.65H378.2z"/><path d="M488 465.1h12.2v24.65H488z"/><path d="M500.2 465.1h73.2v24.65h-73.2z"/><path d="M573.4 465.1h122v24.65h-122z"/><path d="M695.4 465.1h12.2v24.65h-12.2z"/><path d="M707.6 465.1h73.2v24.65h-73.2z"/><path d="M780.8 465.1h158.6v24.65H780.8z"/><path d="M939.4 465.1h12.2v24.65h-12.2z"/><path d="M951.6 465.1h12.2v24.65h-12.2z"/><path d="M963.8 465.1h170.8v24.65H963.8z"/><path d="M1134.6 465.1h36.6v24.65h-36.6z"/><path d="M1171.2 465.1h12.2v24.65h-12.2z"/><path d="M1183.4 465.1h146.4v24.65h-146.4z"/><path d="M1329.8 465.1h36.6v24.65h-36.6z"/><path d="M1366.4 465.1h12.2v24.65h-12.2z"/><path d="M1378.6 465.1h48.8v24.65h-48.8z"/></g><path d="M1427.4 465.1h24.4v24.65h-24.4z" class="L N"/><g class="v L"><path d="M1451.8 465.1h12.2v24.65h-12.2zM0 489.5h12.2v24.65H0z"/><path d="M12.2 489.5h12.2v24.65H12.2z"/><path d="M24.4 489.5H61v24.65H24.4z"/><path d="M61 489.5h36.6v24.65H61z"/><path d="M97.6 489.5H122v24.65H97.6z"/><path d="M122 489.5h134.2v24.65H122z"/><path d="M256.2 489.5h12.2v24.65h-12.2z"/><path d="M268.4 489.5h73.2v24.65h-73.2z"/><path d="M341.6 489.5h12.2v24.65h-12.2z"/><path d="M353.8 489.5H366v24.65h-12.2z"/><path d="M366 489.5h12.2v24.65H366z"/></g><use xlink:href="#t" class="L"/><g class="v L"><use xlink:href="#u"/><use xlink:href="#v"/><use xlink:href="#w"/><use xlink:href="#x"/><path d="M1378.6 489.5h48.8v24.65h-48.8z"/><path d="M1427.4 489.5h24.4v24.65h-24.4z"/><path d="M1451.8 489.5h12.2v24.65h-12.2zM0 513.9h12.2v24.65H0z"/><path d="M12.2 513.9h12.2v24.65H12.2z"/><path d="M24.4 513.9H61v24.65H24.4z"/><path d="M61 513.9h36.6v24.65H61z"/><path d="M97.6 513.9H122v24.65H97.6z"/><path d="M122 513.9h73.2v24.65H122z"/><path d="M195.2 513.9h12.2v24.65h-12.2z"/><path d="M207.4 513.9h134.2v24.65H207.4z"/><path d="M341.6 513.9h12.2v24.65h-12.2z"/><path d="M353.8 513.9H366v24.65h-12.2z"/><path d="M366 513.9h12.2v24.65H366z"/><path d="M378.2 513.9h195.2v24.65H378.2z"/><path d="M573.4 513.9h207.4v24.65H573.4z"/><path d="M780.8 513.9h183v24.65h-183z"/><path d="M963.8 513.9h219.6v24.65H963.8z"/><path d="M1183.4 513.9h195.2v24.65h-195.2z"/><path d="M1378.6 513.9h48.8v24.65h-48.8z"/><path d="M1427.4 513.9h24.4v24.65h-24.4z"/><path d="M1451.8 513.9h12.2v24.65h-12.2zM0 538.3h12.2v24.65H0z"/><path d="M12.2 538.3h12.2v24.65H12.2z"/><path d="M24.4 538.3H61v24.65H24.4z"/><path d="M61 538.3h36.6v24.65H61z"/><path d="M97.6 538.3H122v24.65H97.6z"/><path d="M122 538.3h97.6v24.65H122z"/><path d="M219.6 538.3h12.2v24.65h-12.2z"/><path d="M231.8 538.3h109.8v24.65H231.8z"/><path d="M341.6 538.3h12.2v24.65h-12.2z"/><path d="M353.8 538.3H366v24.65h-12.2z"/><path d="M366 538.3h12.2v24.65H366z"/><path d="M378.2 538.3h195.2v24.65H378.2z"/><path d="M573.4 538.3h207.4v24.65H573.4z"/><path d="M780.8 538.3h183v24.65h-183z"/><path d="M963.8 538.3h219.6v24.65H963.8z"/><path d="M1183.4 538.3h195.2v24.65h-195.2z"/><path d="M1378.6 538.3h48.8v24.65h-48.8z"/><path d="M1427.4 538.3h24.4v24.65h-24.4z"/><path d="M1451.8 538.3h12.2v24.65h-12.2zM0 562.7h12.2v24.65H0z"/><path d="M12.2 562.7h12.2v24.65H12.2z"/><path d="M24.4 562.7H61v24.65H24.4z"/><path d="M61 562.7h36.6v24.65H61z"/><path d="M97.6 562.7H122v24.65H97.6z"/><path d="M122 562.7h97.6v24.65H122z"/><path d="M219.6 562.7h12.2v24.65h-12.2z"/><path d="M231.8 562.7h109.8v24.65H231.8z"/><path d="M341.6 562.7h12.2v24.65h-12.2z"/><path d="M353.8 562.7H366v24.65h-12.2z"/><path d="M366 562.7h12.2v24.65H366z"/><path d="M378.2 562.7h195.2v24.65H378.2z"/><path d="M573.4 562.7h207.4v24.65H573.4z"/><path d="M780.8 562.7h183v24.65h-183z"/><path d="M963.8 562.7h219.6v24.65H963.8z"/><path d="M1183.4 562.7h195.2v24.65h-195.2z"/><path d="M1378.6 562.7h48.8v24.65h-48.8z"/><path d="M1427.4 562.7h24.4v24.65h-24.4z"/><path d="M1451.8 562.7h12.2v24.65h-12.2zM0 587.1h12.2v24.65H0z"/><path d="M12.2 587.1h12.2v24.65H12.2z"/><path d="M24.4 587.1H61v24.65H24.4z"/><path d="M61 587.1h36.6v24.65H61z"/><path d="M97.6 587.1H122v24.65H97.6z"/><path d="M122 587.1h183v24.65H122z"/><path d="M305 587.1h12.2v24.65H305z"/><path d="M317.2 587.1h24.4v24.65h-24.4z"/><path d="M341.6 587.1h12.2v24.65h-12.2z"/><path d="M353.8 587.1H366v24.65h-12.2z"/><path d="M366 587.1h12.2v24.65H366z"/><path d="M378.2 587.1h195.2v24.65H378.2z"/><path d="M573.4 587.1h207.4v24.65H573.4z"/><path d="M780.8 587.1h183v24.65h-183z"/><path d="M963.8 587.1h219.6v24.65H963.8z"/><path d="M1183.4 587.1h195.2v24.65h-195.2z"/><path d="M1378.6 587.1h48.8v24.65h-48.8z"/><path d="M1427.4 587.1h24.4v24.65h-24.4z"/><path d="M1451.8 587.1h12.2v24.65h-12.2zM0 611.5h12.2v24.65H0z"/><path d="M12.2 611.5h12.2v24.65H12.2z"/><path d="M24.4 611.5H61v24.65H24.4z"/><path d="M61 611.5h36.6v24.65H61z"/><path d="M97.6 611.5H122v24.65H97.6z"/><path d="M122 611.5h85.4v24.65H122z"/><path d="M207.4 611.5h12.2v24.65h-12.2z"/><path d="M219.6 611.5h122v24.65h-122z"/><path d="M341.6 611.5h12.2v24.65h-12.2z"/><path d="M353.8 611.5H366v24.65h-12.2z"/><path d="M366 611.5h12.2v24.65H366z"/><path d="M378.2 611.5h195.2v24.65H378.2z"/><path d="M573.4 611.5h207.4v24.65H573.4z"/><path d="M780.8 611.5h183v24.65h-183z"/><path d="M963.8 611.5h219.6v24.65H963.8z"/><path d="M1183.4 611.5h195.2v24.65h-195.2z"/><path d="M1378.6 611.5h48.8v24.65h-48.8z"/><path d="M1427.4 611.5h24.4v24.65h-24.4z"/><path d="M1451.8 611.5h12.2v24.65h-12.2zM0 635.9h12.2v24.65H0z"/><path d="M12.2 635.9h12.2v24.65H12.2z"/><path d="M24.4 635.9h317.2v24.65H24.4z"/><path d="M341.6 635.9h12.2v24.65h-12.2z"/><path d="M353.8 635.9H366v24.65h-12.2z"/><path d="M366 635.9h12.2v24.65H366z"/><path d="M378.2 635.9h195.2v24.65H378.2z"/><path d="M573.4 635.9h207.4v24.65H573.4z"/><path d="M780.8 635.9h183v24.65h-183z"/><path d="M963.8 635.9h219.6v24.65H963.8z"/><path d="M1183.4 635.9h195.2v24.65h-195.2z"/><path d="M1378.6 635.9h48.8v24.65h-48.8z"/><path d="M1427.4 635.9h24.4v24.65h-24.4z"/><path d="M1451.8 635.9h12.2v24.65h-12.2zM0 660.3h12.2v24.65H0z"/><path d="M12.2 660.3h12.2v24.65H12.2z"/><path d="M24.4 660.3h317.2v24.65H24.4z"/><path d="M341.6 660.3h12.2v24.65h-12.2z"/><path d="M353.8 660.3H366v24.65h-12.2z"/><path d="M366 660.3h12.2v24.65H366z"/><path d="M378.2 660.3h195.2v24.65H378.2z"/><path d="M573.4 660.3h207.4v24.65H573.4z"/><path d="M780.8 660.3h183v24.65h-183z"/><path d="M963.8 660.3h219.6v24.65H963.8z"/><path d="M1183.4 660.3h195.2v24.65h-195.2z"/><path d="M1378.6 660.3h48.8v24.65h-48.8z"/><path d="M1427.4 660.3h24.4v24.65h-24.4z"/><path d="M1451.8 660.3h12.2v24.65h-12.2zM0 684.7h12.2v24.65H0z"/><path d="M12.2 684.7h12.2v24.65H12.2z"/><path d="M24.4 684.7h317.2v24.65H24.4z"/><path d="M341.6 684.7h12.2v24.65h-12.2z"/><path d="M353.8 684.7H366v24.65h-12.2z"/><path d="M366 684.7h12.2v24.65H366z"/><path d="M378.2 684.7h195.2v24.65H378.2z"/><path d="M573.4 684.7h207.4v24.65H573.4z"/><path d="M780.8 684.7h183v24.65h-183z"/><path d="M963.8 684.7h219.6v24.65H963.8z"/><path d="M1183.4 684.7h195.2v24.65h-195.2z"/><path d="M1378.6 684.7h48.8v24.65h-48.8z"/><path d="M1427.4 684.7h24.4v24.65h-24.4z"/><path d="M1451.8 684.7h12.2v24.65h-12.2zM0 709.1h12.2v24.65H0z"/><path d="M12.2 709.1h12.2v24.65H12.2z"/><path d="M24.4 709.1h317.2v24.65H24.4z"/><path d="M341.6 709.1h12.2v24.65h-12.2z"/><path d="M353.8 709.1H366v24.65h-12.2z"/><path d="M366 709.1h12.2v24.65H366z"/><path d="M378.2 709.1h195.2v24.65H378.2z"/><path d="M573.4 709.1h207.4v24.65H573.4z"/><path d="M780.8 709.1h183v24.65h-183z"/><path d="M963.8 709.1h219.6v24.65H963.8z"/><path d="M1183.4 709.1h195.2v24.65h-195.2z"/><path d="M1378.6 709.1h48.8v24.65h-48.8z"/><path d="M1427.4 709.1h24.4v24.65h-24.4z"/><path d="M1451.8 709.1h12.2v24.65h-12.2zM0 733.5h12.2v24.65H0z"/><path d="M12.2 733.5h12.2v24.65H12.2z"/><path d="M24.4 733.5h317.2v24.65H24.4z"/><path d="M341.6 733.5h12.2v24.65h-12.2z"/><path d="M353.8 733.5H366v24.65h-12.2z"/><path d="M366 733.5h12.2v24.65H366z"/><path d="M378.2 733.5h195.2v24.65H378.2z"/><path d="M573.4 733.5h207.4v24.65H573.4z"/><path d="M780.8 733.5h183v24.65h-183z"/><path d="M963.8 733.5h219.6v24.65H963.8z"/><path d="M1183.4 733.5h195.2v24.65h-195.2z"/><path d="M1378.6 733.5h48.8v24.65h-48.8z"/><path d="M1427.4 733.5h24.4v24.65h-24.4z"/><path d="M1451.8 733.5h12.2v24.65h-12.2zM0 757.9h12.2v24.65H0z"/><path d="M12.2 757.9h12.2v24.65H12.2z"/><path d="M24.4 757.9h317.2v24.65H24.4z"/><path d="M341.6 757.9h12.2v24.65h-12.2z"/><path d="M353.8 757.9H366v24.65h-12.2z"/><path d="M366 757.9h12.2v24.65H366z"/><path d="M378.2 757.9h195.2v24.65H378.2z"/><path d="M573.4 757.9h207.4v24.65H573.4z"/><path d="M780.8 757.9h183v24.65h-183z"/><path d="M963.8 757.9h219.6v24.65H963.8z"/><path d="M1183.4 757.9h195.2v24.65h-195.2z"/><path d="M1378.6 757.9h48.8v24.65h-48.8z"/><path d="M1427.4 757.9h24.4v24.65h-24.4z"/><path d="M1451.8 757.9h12.2v24.65h-12.2zM0 782.3h12.2v24.65H0z"/><path d="M12.2 782.3h12.2v24.65H12.2z"/><path d="M24.4 782.3h317.2v24.65H24.4z"/><path d="M341.6 782.3h12.2v24.65h-12.2z"/><path d="M353.8 782.3H366v24.65h-12.2z"/><path d="M366 782.3h12.2v24.65H366z"/><path d="M378.2 782.3h195.2v24.65H378.2z"/><path d="M573.4 782.3h207.4v24.65H573.4z"/><path d="M780.8 782.3h183v24.65h-183z"/><path d="M963.8 782.3h219.6v24.65H963.8z"/><path d="M1183.4 782.3h195.2v24.65h-195.2z"/><path d="M1378.6 782.3h48.8v24.65h-48.8z"/><path d="M1427.4 782.3h24.4v24.65h-24.4z"/><path d="M1451.8 782.3h12.2v24.65h-12.2zM0 806.7h12.2v24.65H0z"/><path d="M12.2 806.7h12.2v24.65H12.2z"/></g><g class="N L"><path d="M24.4 806.7h12.2v24.65H24.4z"/><path d="M36.6 806.7h12.2v24.65H36.6z"/><path d="M48.8 806.7H61v24.65H48.8z"/><path d="M61 806.7h12.2v24.65H61z"/><path d="M73.2 806.7h12.2v24.65H73.2z"/><path d="M85.4 806.7h12.2v24.65H85.4z"/><path d="M97.6 806.7h12.2v24.65H97.6z"/><path d="M109.8 806.7H122v24.65h-12.2z"/><path d="M122 806.7h12.2v24.65H122z"/><path d="M134.2 806.7h12.2v24.65h-12.2z"/><path d="M146.4 806.7h12.2v24.65h-12.2z"/><path d="M158.6 806.7h12.2v24.65h-12.2z"/><path d="M170.8 806.7H183v24.65h-12.2z"/><path d="M183 806.7h12.2v24.65H183z"/><path d="M195.2 806.7h12.2v24.65h-12.2z"/><path d="M207.4 806.7h12.2v24.65h-12.2z"/><path d="M219.6 806.7h12.2v24.65h-12.2z"/><path d="M231.8 806.7H244v24.65h-12.2z"/><path d="M244 806.7h12.2v24.65H244z"/><path d="M256.2 806.7h12.2v24.65h-12.2z"/></g><g class="v L"><path d="M268.4 806.7h12.2v24.65h-12.2z"/><path d="M280.6 806.7h12.2v24.65h-12.2z"/><path d="M292.8 806.7H305v24.65h-12.2z"/><path d="M305 806.7h12.2v24.65H305z"/><path d="M317.2 806.7h12.2v24.65h-12.2z"/><path d="M329.4 806.7h12.2v24.65h-12.2z"/><path d="M341.6 806.7h12.2v24.65h-12.2z"/><path d="M353.8 806.7H366v24.65h-12.2z"/><path d="M366 806.7h12.2v24.65H366z"/><path d="M378.2 806.7h195.2v24.65H378.2z"/><path d="M573.4 806.7h207.4v24.65H573.4z"/><path d="M780.8 806.7h183v24.65h-183z"/><path d="M963.8 806.7h219.6v24.65H963.8z"/><path d="M1183.4 806.7h195.2v24.65h-195.2z"/><path d="M1378.6 806.7h48.8v24.65h-48.8z"/><path d="M1427.4 806.7h24.4v24.65h-24.4z"/><path d="M1451.8 806.7h12.2v24.65h-12.2zM0 831.1h12.2v24.65H0z"/><path d="M12.2 831.1h341.6v24.65H12.2z"/><path d="M353.8 831.1H366v24.65h-12.2z"/><path d="M366 831.1h12.2v24.65H366z"/><path d="M378.2 831.1h1073.6v24.65H378.2z"/><path d="M1451.8 831.1h12.2v24.65h-12.2zM0 855.5h97.6v24.65H0z"/><path d="M97.6 855.5h73.2v24.65H97.6z"/><path d="M170.8 855.5h48.8v24.65h-48.8z"/><path d="M219.6 855.5h73.2v24.65h-73.2z"/><path d="M292.8 855.5H1464v24.65H292.8z"/></g><g font-family="Fira Code,monospace" font-size="20"><text y="20" textLength="12.2" x="0" class="N k">╭</text><text x="12.2" y="20" textLength="12.2" class="N k">─</text><text x="24.4" y="20" textLength="170.8" class="N k"> Data Catalog </text><text x="195.2" y="20" textLength="158.6" class="N k">─────────────</text><text x="353.8" y="20" textLength="12.2" class="N k">╮</text><text x="366" y="20" textLength="12.2" class="N k">╭</text><text x="378.2" y="20" textLength="12.2" class="N k">─</text><text x="390.4" y="20" textLength="170.8" class="N k"> Query Editor </text><text x="561.2" y="20" textLength="890.6" class="N k">─────────────────────────────────────────────────────────────────────────</text><text x="1451.8" y="20" textLength="12.2" class="N k">╮</text><text y="44.4" textLength="12.2" x="0" class="N z">│</text><text x="24.4" y="44.4" textLength="24.4" class="O z">▼ </text><text x="48.8" y="44.4" textLength="24.4" class="O z">f1</text><text x="353.8" y="44.4" textLength="12.2" class="N z">│</text><text x="366" y="44.4" textLength="12.2" class="N z">│</text><text x="390.4" y="44.4" textLength="73.2" class="M Q z">select</text><text x="1451.8" y="44.4" textLength="12.2" class="N z">│</text><text y="68.8" textLength="12.2" x="0" class="N h">│</text><text x="24.4" y="68.8" textLength="36.6" class="M h">└─ </text><text x="61" y="68.8" textLength="24.4" class="O h">▼ </text><text x="85.4" y="68.8" textLength="48.8" class="O h">main</text><text x="353.8" y="68.8" textLength="12.2" class="N h">│</text><text x="366" y="68.8" textLength="12.2" class="N h">│</text><text x="439.2" y="68.8" textLength="85.4" class="M h">drivers</text><text x="524.6" y="68.8" textLength="12.2" class="M h">.</text><text x="536.8" y="68.8" textLength="85.4" class="M h">surname</text><text x="622.2" y="68.8" textLength="12.2" class="M h">,</text><text x="1451.8" y="68.8" textLength="12.2" class="N h">│</text><text y="93.2" textLength="12.2" x="0" class="N e">│</text><text x="61" y="93.2" textLength="36.6" class="M e">├─ </text><text x="97.6" y="93.2" textLength="24.4" class="O e">▶ </text><text x="122" y="93.2" textLength="109.8" class="O e">circuits </text><text x="231.8" y="93.2" textLength="12.2" class="N e">t</text><text x="353.8" y="93.2" textLength="12.2" class="N e">│</text><text x="366" y="93.2" textLength="12.2" class="N e">│</text><text x="439.2" y="93.2" textLength="85.4" class="M e">drivers</text><text x="524.6" y="93.2" textLength="12.2" class="M e">.</text><text x="536.8" y="93.2" textLength="97.6" class="M e">forename</text><text x="634.4" y="93.2" textLength="12.2" class="M e">,</text><text x="1451.8" y="93.2" textLength="12.2" class="N e">│</text><text y="117.6" textLength="12.2" x="0" class="N i">│</text><text x="61" y="117.6" textLength="36.6" class="M i">├─ </text><text x="97.6" y="117.6" textLength="24.4" class="O i">▶ </text><text x="122" y="117.6" textLength="219.6" class="O i">constructor_result</text><text x="353.8" y="117.6" textLength="12.2" class="N i">│</text><text x="366" y="117.6" textLength="12.2" class="N i">│</text><text x="439.2" y="117.6" textLength="85.4" class="M i">drivers</text><text x="524.6" y="117.6" textLength="12.2" class="M i">.</text><text x="536.8" y="117.6" textLength="134.2" class="M i">nationality</text><text x="671" y="117.6" textLength="12.2" class="M i">,</text><text x="1451.8" y="117.6" textLength="12.2" class="N i">│</text><text y="142" textLength="12.2" x="0" class="N U">│</text><text x="61" y="142" textLength="36.6" class="M U">├─ </text><text x="97.6" y="142" textLength="24.4" class="O U">▶ </text><text x="122" y="142" textLength="219.6" class="O U">constructor_standi</text><text x="353.8" y="142" textLength="12.2" class="N U">│</text><text x="366" y="142" textLength="12.2" class="N U">│</text><text x="439.2" y="142" textLength="36.6" class="M Q U">avg</text><text x="475.8" y="142" textLength="12.2" class="M U">(</text><text x="488" y="142" textLength="195.2" class="M U">driver_standings</text><text x="683.2" y="142" textLength="12.2" class="M U">.</text><text x="695.4" y="142" textLength="97.6" class="M Q U">position</text><text x="793" y="142" textLength="12.2" class="M U">)</text><text x="817.4" y="142" textLength="24.4" class="M Q U">as</text><text x="854" y="142" textLength="146.4" class="M U">avg_standing</text><text x="1000.4" y="142" textLength="12.2" class="M U">,</text><text x="1451.8" y="142" textLength="12.2" class="N U">│</text><text y="166.4" textLength="12.2" x="0" class="N V">│</text><text x="61" y="166.4" textLength="36.6" class="M V">├─ </text><text x="97.6" y="166.4" textLength="24.4" class="O V">▶ </text><text x="122" y="166.4" textLength="158.6" class="O V">constructors </text><text x="280.6" y="166.4" textLength="12.2" class="N V">t</text><text x="353.8" y="166.4" textLength="12.2" class="N V">│</text><text x="366" y="166.4" textLength="12.2" class="N V">│</text><text x="439.2" y="166.4" textLength="36.6" class="M Q V">avg</text><text x="475.8" y="166.4" textLength="12.2" class="M V">(</text><text x="488" y="166.4" textLength="195.2" class="M V">driver_standings</text><text x="683.2" y="166.4" textLength="12.2" class="M V">.</text><text x="695.4" y="166.4" textLength="73.2" class="M V">points</text><text x="768.6" y="166.4" textLength="12.2" class="M V">)</text><text x="793" y="166.4" textLength="24.4" class="M Q V">as</text><text x="829.6" y="166.4" textLength="122" class="M V">avg_points</text><text x="1451.8" y="166.4" textLength="12.2" class="N V">│</text><text y="190.8" textLength="12.2" x="0" class="N l">│</text><text x="61" y="190.8" textLength="36.6" class="M l">├─ </text><text x="97.6" y="190.8" textLength="24.4" class="O l">▶ </text><text x="122" y="190.8" textLength="207.4" class="O l">driver_standings </text><text x="329.4" y="190.8" textLength="12.2" class="N l">t</text><text x="353.8" y="190.8" textLength="12.2" class="N l">│</text><text x="366" y="190.8" textLength="12.2" class="N l">│</text><text x="390.4" y="190.8" textLength="48.8" class="M Q l">from</text><text x="451.4" y="190.8" textLength="195.2" class="M l">driver_standings</text><text x="1451.8" y="190.8" textLength="12.2" class="N l">│</text><text y="215.2" textLength="12.2" x="0" class="N R">│</text><text x="61" y="215.2" textLength="36.6" class="M R">├─ </text><text x="97.6" y="215.2" textLength="24.4" class="O R">▼ </text><text x="122" y="215.2" textLength="97.6" fill="#ddd" class="Q R">drivers </text><text x="219.6" y="215.2" textLength="12.2" fill="#ddd" class="Q R">t</text><text x="353.8" y="215.2" textLength="12.2" class="N R">│</text><text x="366" y="215.2" textLength="12.2" class="N R">│</text><text x="390.4" y="215.2" textLength="48.8" class="M Q R">join</text><text x="451.4" y="215.2" textLength="85.4" class="M R">drivers</text><text x="549" y="215.2" textLength="24.4" class="M Q R">on</text><text x="585.6" y="215.2" textLength="195.2" class="M R">driver_standings</text><text x="780.8" y="215.2" textLength="12.2" class="M R">.</text><text x="793" y="215.2" textLength="97.6" class="M R">driverid</text><text x="902.8" y="215.2" textLength="12.2" class="M R">=</text><text x="927.2" y="215.2" textLength="85.4" class="M R">drivers</text><text x="1012.6" y="215.2" textLength="12.2" class="M R">.</text><text x="1024.8" y="215.2" textLength="97.6" class="M R">driverid</text><text x="1451.8" y="215.2" textLength="12.2" class="N R">│</text><text y="239.6" textLength="12.2" x="0" class="N S">│</text><text x="61" y="239.6" textLength="36.6" class="M S">│  </text><text x="97.6" y="239.6" textLength="36.6" class="M S">├─ </text><text x="134.2" y="239.6" textLength="61" class="O S">code </text><text x="195.2" y="239.6" textLength="12.2" class="N S">s</text><text x="353.8" y="239.6" textLength="12.2" class="N S">│</text><text x="366" y="239.6" textLength="12.2" class="N S">│</text><text x="390.4" y="239.6" textLength="48.8" class="M Q S">join</text><text x="451.4" y="239.6" textLength="61" class="M S">races</text><text x="524.6" y="239.6" textLength="24.4" class="M Q S">on</text><text x="561.2" y="239.6" textLength="195.2" class="M S">driver_standings</text><text x="756.4" y="239.6" textLength="12.2" class="M S">.</text><text x="768.6" y="239.6" textLength="73.2" class="M S">raceid</text><text x="854" y="239.6" textLength="12.2" class="M S">=</text><text x="878.4" y="239.6" textLength="61" class="M S">races</text><text x="939.4" y="239.6" textLength="12.2" class="M S">.</text><text x="951.6" y="239.6" textLength="73.2" class="M S">raceid</text><text x="1451.8" y="239.6" textLength="12.2" class="N S">│</text><text y="264" textLength="12.2" x="0" class="N W">│</text><text x="61" y="264" textLength="36.6" class="M W">│  </text><text x="97.6" y="264" textLength="36.6" class="M W">├─ </text><text x="134.2" y="264" textLength="48.8" class="O W">dob </text><text x="183" y="264" textLength="12.2" class="N W">d</text><text x="353.8" y="264" textLength="12.2" class="N W">│</text><text x="366" y="264" textLength="12.2" class="N W">│</text><text x="390.4" y="264" textLength="61" class="M Q W">group</text><text x="463.6" y="264" textLength="24.4" class="M Q W">by</text><text x="500.2" y="264" textLength="12.2" class="M W">1</text><text x="512.4" y="264" textLength="12.2" class="M W">,</text><text x="536.8" y="264" textLength="12.2" class="M W">2</text><text x="549" y="264" textLength="12.2" class="M W">,</text><text x="573.4" y="264" textLength="12.2" class="M W">3</text><text x="1451.8" y="264" textLength="12.2" class="N W">│</text><text y="288.4" textLength="12.2" x="0" class="N X">│</text><text x="61" y="288.4" textLength="36.6" class="M X">│  </text><text x="97.6" y="288.4" textLength="36.6" class="M X">├─ </text><text x="134.2" y="288.4" textLength="109.8" class="O X">driverId </text><text x="244" y="288.4" textLength="24.4" class="N X">##</text><text x="353.8" y="288.4" textLength="12.2" class="N X">│</text><text x="366" y="288.4" textLength="12.2" class="N X">│</text><text x="390.4" y="288.4" textLength="73.2" class="M Q X">having</text><text x="475.8" y="288.4" textLength="146.4" class="M X">avg_standing</text><text x="634.4" y="288.4" textLength="12.2" class="M X">&lt;</text><text x="646.6" y="288.4" textLength="12.2" class="M X">=</text><text x="671" y="288.4" textLength="24.4" class="M X">20</text><text x="1451.8" y="288.4" textLength="12.2" class="N X">│</text><text y="312.8" textLength="12.2" x="0" class="N f">│</text><text x="61" y="312.8" textLength="36.6" class="M f">│  </text><text x="97.6" y="312.8" textLength="36.6" class="M f">├─ </text><text x="134.2" y="312.8" textLength="122" class="O f">driverRef </text><text x="256.2" y="312.8" textLength="12.2" class="N f">s</text><text x="353.8" y="312.8" textLength="12.2" class="N f">│</text><text x="366" y="312.8" textLength="12.2" class="N f">│</text><text x="390.4" y="312.8" textLength="61" class="M Q f">order</text><text x="463.6" y="312.8" textLength="24.4" class="M Q f">by</text><text x="500.2" y="312.8" textLength="146.4" class="M f">avg_standing</text><text x="658.8" y="312.8" textLength="36.6" class="M Q f">asc</text><text x="1451.8" y="312.8" textLength="12.2" class="N f">│</text><text y="337.2" textLength="12.2" x="0" class="N w">│</text><text x="61" y="337.2" textLength="36.6" class="M w">│  </text><text x="97.6" y="337.2" textLength="36.6" class="M w">├─ </text><text x="134.2" y="337.2" textLength="109.8" class="O w">forename </text><text x="244" y="337.2" textLength="12.2" class="N w">s</text><text x="353.8" y="337.2" textLength="12.2" class="N w">│</text><text x="366" y="337.2" textLength="12.2" class="N w">│</text><text x="1451.8" y="337.2" textLength="12.2" class="N w">│</text><text y="361.6" textLength="12.2" x="0" class="N x">│</text><text x="61" y="361.6" textLength="36.6" class="M x">│  </text><text x="97.6" y="361.6" textLength="36.6" class="M x">├─ </text><text x="134.2" y="361.6" textLength="146.4" class="O x">nationality </text><text x="280.6" y="361.6" textLength="12.2" class="N x">s</text><text x="353.8" y="361.6" textLength="12.2" class="N x">│</text><text x="366" y="361.6" textLength="12.2" class="N x">│</text><text x="1451.8" y="361.6" textLength="12.2" class="N x">│</text><text y="386" textLength="12.2" x="0" class="N y">│</text><text x="61" y="386" textLength="36.6" class="M y">│  </text><text x="97.6" y="386" textLength="36.6" class="M y">├─ </text><text x="134.2" y="386" textLength="85.4" class="O y">number </text><text x="219.6" y="386" textLength="12.2" class="N y">s</text><text x="353.8" y="386" textLength="12.2" class="N y">│</text><text x="366" y="386" textLength="12.2" class="N y">│</text><text x="1451.8" y="386" textLength="12.2" class="N y">│</text><text y="410.4" textLength="12.2" x="0" class="N n">│</text><text x="61" y="410.4" textLength="36.6" class="M n">│  </text><text x="97.6" y="410.4" textLength="36.6" class="M n">├─ </text><text x="134.2" y="410.4" textLength="97.6" class="O n">surname </text><text x="231.8" y="410.4" textLength="12.2" class="N n">s</text><text x="353.8" y="410.4" textLength="12.2" class="N n">│</text><text x="366" y="410.4" textLength="12.2" class="N n">╰</text><text x="378.2" y="410.4" textLength="1073.6" class="N n">────────────────────────────────────────────────────────────────────────────────────────</text><text x="1451.8" y="410.4" textLength="12.2" class="N n">╯</text><text y="434.8" textLength="12.2" x="0" class="N g">│</text><text x="61" y="434.8" textLength="36.6" class="M g">│  </text><text x="97.6" y="434.8" textLength="36.6" class="M g">└─ </text><text x="134.2" y="434.8" textLength="48.8" class="O g">url </text><text x="183" y="434.8" textLength="12.2" class="N g">s</text><text x="353.8" y="434.8" textLength="12.2" class="N g">│</text><text x="1000.4" y="434.8" textLength="12.2" class="N g">▐</text><text x="1012.6" y="434.8" textLength="12.2" class="Q g v">X</text><text x="1024.8" y="434.8" textLength="12.2" class="N g">▌</text><text x="1037" y="434.8" textLength="85.4" class="O g"> Limit </text><text x="1122.4" y="434.8" textLength="36.6" class="O g">500</text><text x="1268.8" y="434.8" textLength="134.2" fill="#ddd" class="Q g"> Run Query </text><text y="459.2" textLength="12.2" x="0" class="N j">│</text><text x="61" y="459.2" textLength="36.6" class="M j">├─ </text><text x="97.6" y="459.2" textLength="24.4" class="O j">▶ </text><text x="122" y="459.2" textLength="122" class="O j">lap_times </text><text x="244" y="459.2" textLength="12.2" class="N j">t</text><text x="353.8" y="459.2" textLength="12.2" class="N j">│</text><text x="366" y="459.2" textLength="12.2" class="M j">╭</text><text x="378.2" y="459.2" textLength="12.2" class="M j">─</text><text x="390.4" y="459.2" textLength="353.8" class="M j"> Query Results (232 Records) </text><text x="744.2" y="459.2" textLength="707.6" class="M j">──────────────────────────────────────────────────────────</text><text x="1451.8" y="459.2" textLength="12.2" class="M j">╮</text><text y="483.6" textLength="12.2" x="0" class="N T">│</text><text x="61" y="483.6" textLength="36.6" class="M T">├─ </text><text x="97.6" y="483.6" textLength="24.4" class="O T">▶ </text><text x="122" y="483.6" textLength="122" class="O T">pit_stops </text><text x="244" y="483.6" textLength="12.2" class="N T">t</text><text x="353.8" y="483.6" textLength="12.2" class="N T">│</text><text x="366" y="483.6" textLength="12.2" class="M T">│</text><text x="378.2" y="483.6" textLength="109.8" class="M Q T"> surname </text><text x="488" y="483.6" textLength="12.2" class="N Q T">s</text><text x="573.4" y="483.6" textLength="122" class="M Q T"> forename </text><text x="695.4" y="483.6" textLength="12.2" class="N Q T">s</text><text x="780.8" y="483.6" textLength="158.6" class="M Q T"> nationality </text><text x="939.4" y="483.6" textLength="12.2" class="N Q T">s</text><text x="963.8" y="483.6" textLength="170.8" class="M Q T"> avg_standing </text><text x="1134.6" y="483.6" textLength="36.6" class="N Q T">#.#</text><text x="1183.4" y="483.6" textLength="146.4" class="M Q T"> avg_points </text><text x="1329.8" y="483.6" textLength="36.6" class="N Q T">#.#</text><text x="1451.8" y="483.6" textLength="12.2" class="M T">│</text><text y="508" textLength="12.2" x="0" class="N Y">│</text><text x="61" y="508" textLength="36.6" class="M Y">├─ </text><text x="97.6" y="508" textLength="24.4" class="O Y">▶ </text><text x="122" y="508" textLength="134.2" class="O Y">qualifying </text><text x="256.2" y="508" textLength="12.2" class="N Y">t</text><text x="353.8" y="508" textLength="12.2" class="N Y">│</text><text x="366" y="508" textLength="12.2" class="M Y">│</text><text x="378.2" y="508" textLength="195.2" fill="#ddd" class="Y"> Hamilton       </text><text x="573.4" y="508" textLength="207.4" class="O Y"> Lewis           </text><text x="780.8" y="508" textLength="183" class="O Y"> British       </text><text x="963.8" y="508" textLength="219.6" class="O Y"> 2.66             </text><text x="1183.4" y="508" textLength="195.2" class="O Y"> 146.66         </text><text x="1451.8" y="508" textLength="12.2" class="M Y">│</text><text y="532.4" textLength="12.2" x="0" class="N Z">│</text><text x="61" y="532.4" textLength="36.6" class="M Z">├─ </text><text x="97.6" y="532.4" textLength="24.4" class="O Z">▶ </text><text x="122" y="532.4" textLength="73.2" class="O Z">races </text><text x="195.2" y="532.4" textLength="12.2" class="N Z">t</text><text x="353.8" y="532.4" textLength="12.2" class="N Z">│</text><text x="366" y="532.4" textLength="12.2" class="M Z">│</text><text x="378.2" y="532.4" textLength="195.2" class="O Z"> Prost          </text><text x="573.4" y="532.4" textLength="207.4" class="O Z"> Alain           </text><text x="780.8" y="532.4" textLength="183" class="O Z"> French        </text><text x="963.8" y="532.4" textLength="219.6" class="O Z"> 3.51             </text><text x="1183.4" y="532.4" textLength="195.2" class="O Z"> 33.48          </text><text x="1451.8" y="532.4" textLength="12.2" class="M Z">│</text><text y="556.8" textLength="12.2" x="0" class="N a">│</text><text x="61" y="556.8" textLength="36.6" class="M a">├─ </text><text x="97.6" y="556.8" textLength="24.4" class="O a">▶ </text><text x="122" y="556.8" textLength="97.6" class="O a">results </text><text x="219.6" y="556.8" textLength="12.2" class="N a">t</text><text x="353.8" y="556.8" textLength="12.2" class="N a">│</text><text x="366" y="556.8" textLength="12.2" class="M a">│</text><text x="378.2" y="556.8" textLength="195.2" class="O a"> Stewart        </text><text x="573.4" y="556.8" textLength="207.4" class="O a"> Jackie          </text><text x="780.8" y="556.8" textLength="183" class="O a"> British       </text><text x="963.8" y="556.8" textLength="219.6" class="O a"> 3.78             </text><text x="1183.4" y="556.8" textLength="195.2" class="O a"> 24.75          </text><text x="1451.8" y="556.8" textLength="12.2" class="M a">│</text><text y="581.2" textLength="12.2" x="0" class="N b">│</text><text x="61" y="581.2" textLength="36.6" class="M b">├─ </text><text x="97.6" y="581.2" textLength="24.4" class="O b">▶ </text><text x="122" y="581.2" textLength="97.6" class="O b">seasons </text><text x="219.6" y="581.2" textLength="12.2" class="N b">t</text><text x="353.8" y="581.2" textLength="12.2" class="N b">│</text><text x="366" y="581.2" textLength="12.2" class="M b">│</text><text x="378.2" y="581.2" textLength="195.2" class="O b"> Schumacher     </text><text x="573.4" y="581.2" textLength="207.4" class="O b"> Michael         </text><text x="780.8" y="581.2" textLength="183" class="O b"> German        </text><text x="963.8" y="581.2" textLength="219.6" class="O b"> 4.33             </text><text x="1183.4" y="581.2" textLength="195.2" class="O b"> 46.37          </text><text x="1451.8" y="581.2" textLength="12.2" class="M b">│</text><text y="605.6" textLength="12.2" x="0" class="N c">│</text><text x="61" y="605.6" textLength="36.6" class="M c">├─ </text><text x="97.6" y="605.6" textLength="24.4" class="O c">▶ </text><text x="122" y="605.6" textLength="183" class="O c">sprint_results </text><text x="305" y="605.6" textLength="12.2" class="N c">t</text><text x="353.8" y="605.6" textLength="12.2" class="N c">│</text><text x="366" y="605.6" textLength="12.2" class="M c">│</text><text x="378.2" y="605.6" textLength="195.2" class="O c"> Verstappen     </text><text x="573.4" y="605.6" textLength="207.4" class="O c"> Max             </text><text x="780.8" y="605.6" textLength="183" class="O c"> Dutch         </text><text x="963.8" y="605.6" textLength="219.6" class="O c"> 5.09             </text><text x="1183.4" y="605.6" textLength="195.2" class="O c"> 125.30         </text><text x="1451.8" y="605.6" textLength="12.2" class="M c">│</text><text y="630" textLength="12.2" x="0" class="N d">│</text><text x="61" y="630" textLength="36.6" class="M d">└─ </text><text x="97.6" y="630" textLength="24.4" class="O d">▶ </text><text x="122" y="630" textLength="85.4" class="O d">status </text><text x="207.4" y="630" textLength="12.2" class="N d">t</text><text x="353.8" y="630" textLength="12.2" class="N d">│</text><text x="366" y="630" textLength="12.2" class="M d">│</text><text x="378.2" y="630" textLength="195.2" class="O d"> Fangio         </text><text x="573.4" y="630" textLength="207.4" class="O d"> Juan            </text><text x="780.8" y="630" textLength="183" class="O d"> Argentine     </text><text x="963.8" y="630" textLength="219.6" class="O d"> 5.22             </text><text x="1183.4" y="630" textLength="195.2" class="O d"> 16.88          </text><text x="1451.8" y="630" textLength="12.2" class="M d">│</text><text y="654.4" textLength="12.2" x="0" class="N o">│</text><text x="353.8" y="654.4" textLength="12.2" class="N o">│</text><text x="366" y="654.4" textLength="12.2" class="M o">│</text><text x="378.2" y="654.4" textLength="195.2" class="O o"> Pablo Montoya  </text><text x="573.4" y="654.4" textLength="207.4" class="O o"> Juan            </text><text x="780.8" y="654.4" textLength="183" class="O o"> Colombian     </text><text x="963.8" y="654.4" textLength="219.6" class="O o"> 5.25             </text><text x="1183.4" y="654.4" textLength="195.2" class="O o"> 27.33          </text><text x="1451.8" y="654.4" textLength="12.2" class="M o">│</text><text y="678.8" textLength="12.2" x="0" class="N p">│</text><text x="353.8" y="678.8" textLength="12.2" class="N p">│</text><text x="366" y="678.8" textLength="12.2" class="M p">│</text><text x="378.2" y="678.8" textLength="195.2" class="O p"> Farina         </text><text x="573.4" y="678.8" textLength="207.4" class="O p"> Nino            </text><text x="780.8" y="678.8" textLength="183" class="O p"> Italian       </text><text x="963.8" y="678.8" textLength="219.6" class="O p"> 5.27             </text><text x="1183.4" y="678.8" textLength="195.2" class="O p"> 11.01          </text><text x="1451.8" y="678.8" textLength="12.2" class="M p">│</text><text y="703.2" textLength="12.2" x="0" class="N q">│</text><text x="353.8" y="703.2" textLength="12.2" class="N q">│</text><text x="366" y="703.2" textLength="12.2" class="M q">│</text><text x="378.2" y="703.2" textLength="195.2" class="O q"> Hulme          </text><text x="573.4" y="703.2" textLength="207.4" class="O q"> Denny           </text><text x="780.8" y="703.2" textLength="183" class="O q"> New Zealander </text><text x="963.8" y="703.2" textLength="219.6" class="O q"> 5.34             </text><text x="1183.4" y="703.2" textLength="195.2" class="O q"> 14.58          </text><text x="1451.8" y="703.2" textLength="12.2" class="M q">│</text><text y="727.6" textLength="12.2" x="0" class="N r">│</text><text x="353.8" y="727.6" textLength="12.2" class="N r">│</text><text x="366" y="727.6" textLength="12.2" class="M r">│</text><text x="378.2" y="727.6" textLength="195.2" class="O r"> Fagioli        </text><text x="573.4" y="727.6" textLength="207.4" class="O r"> Luigi           </text><text x="780.8" y="727.6" textLength="183" class="O r"> Italian       </text><text x="963.8" y="727.6" textLength="219.6" class="O r"> 5.67             </text><text x="1183.4" y="727.6" textLength="195.2" class="O r"> 9.67           </text><text x="1451.8" y="727.6" textLength="12.2" class="M r">│</text><text y="752" textLength="12.2" x="0" class="N s">│</text><text x="353.8" y="752" textLength="12.2" class="N s">│</text><text x="366" y="752" textLength="12.2" class="M s">│</text><text x="378.2" y="752" textLength="195.2" class="O s"> Clark          </text><text x="573.4" y="752" textLength="207.4" class="O s"> Jim             </text><text x="780.8" y="752" textLength="183" class="O s"> British       </text><text x="963.8" y="752" textLength="219.6" class="O s"> 5.81             </text><text x="1183.4" y="752" textLength="195.2" class="O s"> 17.63          </text><text x="1451.8" y="752" textLength="12.2" class="M s">│</text><text y="776.4" textLength="12.2" x="0" class="N t">│</text><text x="353.8" y="776.4" textLength="12.2" class="N t">│</text><text x="366" y="776.4" textLength="12.2" class="M t">│</text><text x="378.2" y="776.4" textLength="195.2" class="O t"> Vettel         </text><text x="573.4" y="776.4" textLength="207.4" class="O t"> Sebastian       </text><text x="780.8" y="776.4" textLength="183" class="O t"> German        </text><text x="963.8" y="776.4" textLength="219.6" class="O t"> 5.84             </text><text x="1183.4" y="776.4" textLength="195.2" class="O t"> 107.11         </text><text x="1451.8" y="776.4" textLength="12.2" class="M t">│</text><text y="800.8" textLength="12.2" x="0" class="N u">│</text><text x="353.8" y="800.8" textLength="12.2" class="N u">│</text><text x="366" y="800.8" textLength="12.2" class="M u">│</text><text x="378.2" y="800.8" textLength="195.2" class="O u"> Senna          </text><text x="573.4" y="800.8" textLength="207.4" class="O u"> Ayrton          </text><text x="780.8" y="800.8" textLength="183" class="O u"> Brazilian     </text><text x="963.8" y="800.8" textLength="219.6" class="O u"> 5.92             </text><text x="1183.4" y="800.8" textLength="195.2" class="O u"> 31.61          </text><text x="1451.8" y="800.8" textLength="12.2" class="M u">│</text><text y="825.2" textLength="12.2" x="0" class="N m">│</text><text x="268.4" y="825.2" textLength="12.2" class="N m">▌</text><text x="353.8" y="825.2" textLength="12.2" class="N m">│</text><text x="366" y="825.2" textLength="12.2" class="M m">│</text><text x="378.2" y="825.2" textLength="195.2" class="O m"> Bottas         </text><text x="573.4" y="825.2" textLength="207.4" class="O m"> Valtteri        </text><text x="780.8" y="825.2" textLength="183" class="O m"> Finnish       </text><text x="963.8" y="825.2" textLength="219.6" class="O m"> 5.99             </text><text x="1183.4" y="825.2" textLength="195.2" class="O m"> 96.06          </text><text x="1451.8" y="825.2" textLength="12.2" class="M m">│</text><text y="849.6" textLength="12.2" x="0" class="N AA">╰</text><text x="12.2" y="849.6" textLength="341.6" class="N AA">────────────────────────────</text><text x="353.8" y="849.6" textLength="12.2" class="N AA">╯</text><text x="366" y="849.6" textLength="12.2" class="M AA">╰</text><text x="378.2" y="849.6" textLength="1073.6" class="M AA">────────────────────────────────────────────────────────────────────────────────────────</text><text x="1451.8" y="849.6" textLength="12.2" class="M AA">╯</text><text y="874" textLength="97.6" x="0" class="M AB"> CTRL+Q </text><text x="97.6" y="874" textLength="73.2" class="M AB"> Quit </text><text x="170.8" y="874" textLength="48.8" class="M AB"> F1 </text><text x="219.6" y="874" textLength="73.2" class="M AB"> Help </text></g></g></svg>